<svg xmlns="http://www.w3.org/2000/svg" xmlns:xlink="http://www.w3.org/1999/xlink" width="2000" zoomAndPan="magnify" viewBox="0 0 1500 1499.999933" height="2000" preserveAspectRatio="xMidYMid meet" version="1.0"><path fill="#000000" d="M 152.648438 326.46875 C 152.648438 326.46875 214.707031 326.175781 214.707031 326.175781 C 218.824219 340.882812 224.707031 355.292969 232.648438 368.824219 L 188.824219 412.941406 C 183.53125 418.53125 183.53125 427.058594 188.824219 432.648438 L 239.707031 482.941406 C 245 488.234375 253.824219 488.234375 259.410156 482.941406 L 303.234375 438.824219 C 316.765625 446.46875 331.175781 452.351562 345.882812 456.175781 L 346.175781 518.234375 C 346.175781 525.882812 352.351562 532.058594 360 532.058594 L 431.46875 531.765625 C 439.117188 531.765625 445.292969 525.292969 445.292969 517.648438 L 445 455.589844 C 459.707031 451.46875 473.824219 445.589844 487.351562 437.941406 L 531.46875 481.765625 C 536.765625 487.058594 545.589844 487.058594 551.175781 481.46875 L 601.46875 430.589844 C 606.765625 425 606.765625 416.46875 601.46875 410.882812 L 557.351562 367.058594 C 565 353.527344 570.882812 339.117188 574.707031 324.410156 L 636.765625 324.117188 C 643.234375 324.117188 648.53125 319.707031 650 314.117188 C 650.292969 312.941406 650.589844 311.765625 650.589844 310.292969 L 650.292969 238.527344 C 650 231.175781 644.117188 224.707031 636.46875 224.707031 L 574.410156 225 C 570.292969 210.292969 564.410156 195.882812 556.46875 182.351562 L 600.292969 138.234375 C 605.589844 132.648438 605.589844 124.117188 600.292969 118.527344 L 549.410156 68.234375 C 543.824219 62.941406 535.292969 62.941406 529.707031 68.234375 L 485.882812 112.351562 C 472.351562 104.707031 457.941406 98.824219 443.234375 95 L 442.941406 32.941406 C 442.941406 25.292969 436.765625 19.117188 429.117188 19.117188 L 357.351562 19.410156 C 349.707031 19.410156 343.53125 25.589844 343.53125 33.234375 L 343.824219 95.292969 C 329.117188 99.410156 315 105.292969 301.46875 112.941406 L 257.351562 69.117188 C 251.765625 63.824219 243.234375 63.824219 237.648438 69.410156 L 187.351562 120.589844 C 182.058594 126.175781 182.058594 134.707031 187.351562 140.292969 L 231.46875 184.117188 C 223.824219 197.648438 217.941406 212.058594 214.117188 226.765625 L 152.058594 227.058594 C 145.589844 227.058594 140.292969 231.175781 138.824219 237.058594 C 138.53125 238.234375 138.234375 239.707031 138.234375 240.882812 L 138.53125 312.648438 C 138.824219 320.292969 145 326.46875 152.648438 326.46875 Z M 512.941406 275.589844 C 512.941406 340.882812 460 393.824219 394.707031 393.824219 C 329.410156 393.824219 276.46875 340.882812 276.46875 275.589844 C 281.765625 119.117188 507.351562 119.117188 512.941406 275.589844 Z M 1111.175781 1292.941406 L 388.824219 1292.941406 L 388.824219 1182.351562 L 1111.175781 1182.351562 Z M 226.765625 1453.527344 C 226.765625 1468.53125 238.824219 1480.882812 253.824219 1480.882812 L 1246.175781 1480.882812 C 1261.175781 1480.882812 1272.941406 1468.527344 1272.941406 1453.527344 L 1272.941406 1076.46875 L 226.765625 1076.46875 Z M 356.765625 1166.175781 C 356.765625 1157.351562 364.117188 1150 372.941406 1150 L 1127.648438 1150 C 1136.46875 1150 1143.824219 1157.351562 1143.824219 1166.175781 L 1143.824219 1309.117188 C 1143.824219 1317.941406 1136.46875 1325.292969 1127.648438 1325.292969 L 372.648438 1325.292969 C 363.824219 1325.292969 356.46875 1317.941406 356.46875 1309.117188 L 356.46875 1166.175781 Z M 1272.351562 861.765625 C 1272.648438 862.058594 1400.292969 1047.351562 1400.589844 1047.648438 L 99.117188 1047.648438 L 227.058594 861.765625 Z M 151.175781 920.882812 L 0 952.058594 L 178.53125 880.882812 Z M 1320.882812 880.589844 L 1500 952.058594 L 1348.53125 920.882812 Z M 978.53125 387.351562 C 972.058594 372.058594 979.117188 354.410156 994.410156 347.941406 C 1009.707031 341.46875 1027.058594 348.53125 1033.824219 363.824219 L 1115.589844 555.882812 C 1122.058594 571.175781 1115 588.53125 1099.707031 595.292969 C 1084.707031 601.765625 1066.765625 594.707031 1060.292969 579.410156 Z M 857.058594 439.117188 C 850.589844 423.824219 857.648438 406.46875 872.648438 400 C 887.941406 393.53125 905.292969 400.589844 912.058594 415.882812 L 993.824219 607.941406 C 1000.292969 623.234375 993.234375 640.589844 977.941406 647.351562 C 962.941406 653.824219 945.292969 646.765625 938.824219 631.46875 Z M 735.292969 490.882812 C 728.824219 475.589844 735.882812 458.234375 751.175781 451.46875 C 766.175781 445 783.824219 452.058594 790.589844 467.351562 L 872.351562 659.410156 C 878.824219 674.707031 871.765625 692.351562 856.46875 698.824219 C 841.175781 705.292969 823.824219 698.234375 817.058594 682.941406 Z M 668.53125 519.410156 L 750.292969 711.46875 C 756.765625 726.765625 749.707031 744.117188 734.410156 750.882812 C 719.117188 757.351562 701.765625 750.292969 695 735 L 613.234375 542.941406 C 606.765625 527.648438 613.824219 510.292969 629.117188 503.53125 C 644.410156 497.058594 662.058594 504.117188 668.53125 519.410156 Z M 1124.707031 503.824219 L 1077.941406 393.53125 L 1094.410156 386.46875 L 1141.175781 497.058594 Z M 1002.941406 555.589844 L 956.175781 445.589844 L 969.410156 440 L 1016.175781 550 Z M 881.175781 607.351562 L 834.410156 497.058594 L 847.648438 491.46875 L 894.410156 601.46875 Z M 759.410156 659.117188 L 712.648438 549.117188 L 725.882812 543.53125 L 772.648438 653.53125 Z M 620.292969 718.234375 L 573.53125 607.941406 L 604.117188 595 L 650.882812 705.292969 Z M 451.46875 626.46875 C 405.292969 646.175781 383.824219 699.117188 403.53125 745.589844 C 422.941406 791.765625 476.175781 812.941406 522.351562 793.527344 L 605.882812 757.941406 L 534.707031 591.175781 Z M 504.117188 740.882812 C 462.648438 762.351562 430 700.882812 470.882812 678.53125 C 512.351562 657.058594 545 718.234375 504.117188 740.882812 Z M 1110.882812 351.765625 C 1105 337.648438 1109.410156 321.46875 1121.765625 312.351562 L 1177.648438 271.46875 L 1281.765625 516.765625 L 1213.53125 528.824219 C 1198.53125 531.46875 1183.53125 523.53125 1177.648438 509.410156 Z M 1311.175781 511.46875 L 1201.765625 253.824219 L 1225.292969 249.707031 C 1255.882812 244.410156 1286.175781 260.882812 1298.527344 289.410156 L 1352.941406 417.058594 C 1365 445.589844 1355.882812 479.117188 1330.882812 497.351562 Z M 1379.410156 406.765625 L 1417.648438 390.589844 C 1453.53125 375.589844 1470 334.117188 1454.707031 298.53125 C 1439.707031 262.648438 1398.234375 246.175781 1362.648438 261.175781 L 1324.410156 277.351562 C 1325 277.941406 1378.824219 405 1379.117188 405.882812 C 1379.410156 406.175781 1379.410156 406.46875 1379.410156 406.765625 Z M 1378.824219 300.589844 C 1412.351562 287.058594 1433.527344 336.765625 1400.292969 351.175781 C 1366.46875 365 1345.882812 315.589844 1378.824219 300.589844 Z M 1378.824219 300.589844 " fill-opacity="1" fill-rule="nonzero"/></svg>