<svg xmlns="http://www.w3.org/2000/svg" xmlns:xlink="http://www.w3.org/1999/xlink" width="2000" zoomAndPan="magnify" viewBox="0 0 1500 1499.999933" height="2000" preserveAspectRatio="xMidYMid meet" version="1.0"><defs><clipPath id="5197730c1f"><path d="M 15.625 1103 L 107 1103 L 107 1414 L 15.625 1414 Z M 15.625 1103 " clip-rule="nonzero"/></clipPath><clipPath id="1aaf19780e"><path d="M 1009 89 L 1484.125 89 L 1484.125 564 L 1009 564 Z M 1009 89 " clip-rule="nonzero"/></clipPath></defs><path fill="#231f20" d="M 1253.105469 1163.355469 C 1107.375 1217.808594 910.097656 1290.894531 807.214844 1295.242188 C 803.695312 1295.449219 799.96875 1295.449219 796.246094 1295.449219 C 803.074219 1307.871094 804.523438 1318.636719 800.382812 1327.539062 C 794.175781 1341.203125 777.199219 1347.828125 748.011719 1347.828125 C 739.109375 1347.828125 728.96875 1347.207031 717.582031 1345.964844 C 591.308594 1332.300781 374.574219 1213.875 365.464844 1208.699219 L 374.160156 1192.964844 C 376.4375 1194.207031 596.898438 1314.703125 719.445312 1327.953125 C 773.058594 1333.75 782.167969 1323.398438 783.824219 1320.085938 C 786.515625 1314.289062 781.132812 1303.730469 773.679688 1294.207031 C 769.953125 1289.238281 765.816406 1284.683594 761.882812 1280.957031 C 742.214844 1270.601562 459.652344 1122.570312 311.851562 1101.035156 C 271.484375 1095.238281 175.226562 1097.101562 114.574219 1099.171875 L 114.574219 1360.871094 C 170.050781 1338.925781 293.632812 1297.3125 339.589844 1338.925781 C 399.621094 1393.378906 635.816406 1499.382812 738.695312 1490.273438 C 841.785156 1480.957031 1201.769531 1281.371094 1253.105469 1244.929688 C 1262.835938 1238.097656 1274.222656 1228.78125 1285.191406 1218.84375 C 1288.917969 1216.152344 1292.644531 1213.046875 1296.371094 1209.734375 C 1305.894531 1201.246094 1313.964844 1192.34375 1319.140625 1184.265625 C 1321.003906 1181.367188 1322.453125 1178.675781 1323.28125 1176.398438 C 1340.875 1149.898438 1332.804688 1133.542969 1253.105469 1163.355469 Z M 769.953125 1319.671875 C 768.710938 1320.292969 765.609375 1321.121094 757.535156 1321.121094 C 748.839844 1321.121094 737.660156 1320.085938 725.863281 1318.015625 C 700.609375 1313.667969 686.738281 1307.664062 684.046875 1304.765625 C 685.289062 1304.144531 688.394531 1303.316406 696.46875 1303.316406 C 705.160156 1303.316406 716.339844 1304.351562 728.140625 1306.421875 C 753.394531 1310.769531 767.261719 1316.980469 769.953125 1319.671875 Z M 1257.039062 1214.496094 C 1261.800781 1207.042969 1269.667969 1198.347656 1278.773438 1190.273438 C 1295.957031 1175.15625 1310.238281 1168.324219 1316.449219 1168.324219 C 1317.484375 1168.324219 1318.3125 1168.53125 1318.519531 1168.945312 C 1319.347656 1169.980469 1318.933594 1174.121094 1314.171875 1181.574219 C 1309.410156 1189.03125 1301.546875 1197.726562 1292.4375 1205.800781 C 1275.257812 1220.914062 1260.972656 1227.746094 1254.761719 1227.746094 C 1253.726562 1227.746094 1252.898438 1227.539062 1252.691406 1227.125 C 1251.863281 1226.089844 1252.277344 1221.949219 1257.039062 1214.496094 Z M 1257.039062 1214.496094 " fill-opacity="1" fill-rule="nonzero"/><g clip-path="url(#5197730c1f)"><path fill="#231f20" d="M 95.53125 1103.730469 L 15.625 1103.730469 L 15.625 1413.046875 L 106.914062 1413.046875 L 106.914062 1103.730469 Z M 53.921875 1387.996094 C 38.808594 1387.996094 26.390625 1375.574219 26.390625 1360.460938 C 26.390625 1345.34375 38.808594 1332.921875 53.921875 1332.921875 C 69.03125 1332.921875 81.453125 1345.34375 81.453125 1360.460938 C 81.453125 1375.574219 69.03125 1387.996094 53.921875 1387.996094 Z M 53.921875 1387.996094 " fill-opacity="1" fill-rule="nonzero"/></g><path fill="#231f20" d="M 1283.121094 216.765625 C 1253.933594 207.035156 1222.882812 209.3125 1195.351562 222.976562 C 1167.820312 236.644531 1147.328125 260.453125 1137.597656 289.4375 C 1127.867188 318.628906 1130.144531 349.6875 1143.808594 377.222656 C 1157.46875 404.757812 1181.273438 425.257812 1210.257812 434.988281 C 1239.445312 444.71875 1270.496094 442.441406 1298.027344 428.777344 C 1325.558594 415.113281 1346.050781 391.300781 1355.78125 362.316406 C 1365.511719 333.125 1363.234375 302.066406 1349.570312 274.53125 C 1335.703125 246.996094 1312.101562 226.496094 1283.121094 216.765625 Z M 1315.621094 348.859375 C 1309.410156 367.285156 1296.578125 382.191406 1279.1875 390.886719 C 1261.800781 399.582031 1242.136719 401.03125 1223.710938 394.820312 C 1205.289062 388.609375 1190.382812 375.773438 1181.6875 358.382812 C 1172.996094 340.992188 1171.546875 321.324219 1177.757812 302.894531 C 1183.964844 284.46875 1196.800781 269.5625 1214.1875 260.867188 C 1231.578125 252.171875 1251.242188 250.722656 1269.667969 256.933594 C 1288.089844 263.144531 1302.996094 275.980469 1311.6875 293.371094 C 1320.382812 310.761719 1321.832031 330.433594 1315.621094 348.859375 Z M 1315.621094 348.859375 " fill-opacity="1" fill-rule="nonzero"/><g clip-path="url(#1aaf19780e)"><path fill="#231f20" d="M 1445.207031 351.34375 C 1448.726562 324.84375 1446.65625 298.339844 1439.824219 273.496094 L 1481.226562 243.683594 L 1450.796875 183.019531 L 1399.875 197.097656 C 1386.832031 181.570312 1371.101562 167.699219 1353.503906 156.519531 L 1360.957031 110.761719 L 1296.578125 89.230469 L 1275.050781 127.53125 C 1251.863281 124.21875 1228.472656 125.046875 1206.324219 129.601562 L 1179.414062 92.128906 L 1118.757812 122.5625 L 1130.144531 163.144531 C 1108.824219 178.464844 1090.398438 197.925781 1076.324219 221.113281 L 1031.195312 213.867188 L 1009.667969 278.257812 L 1048.378906 300.203125 C 1045.480469 322.773438 1046.515625 345.339844 1051.070312 366.871094 L 1018.15625 390.679688 L 1048.585938 451.34375 L 1083.777344 441.613281 C 1099.714844 464.179688 1120.414062 483.433594 1144.84375 497.929688 L 1137.597656 542.441406 L 1201.976562 563.972656 L 1224.125 524.84375 C 1250 527.742188 1275.671875 525.671875 1299.890625 519.046875 L 1326.386719 555.898438 L 1387.039062 525.464844 L 1374.410156 480.121094 C 1391.179688 466.25 1405.667969 449.480469 1417.46875 430.433594 L 1462.597656 437.679688 L 1484.125 373.289062 Z M 1310.238281 453 C 1276.292969 469.976562 1237.789062 472.667969 1201.769531 460.660156 C 1165.75 448.652344 1136.5625 423.394531 1119.585938 389.4375 C 1102.613281 355.484375 1099.921875 316.972656 1111.929688 280.949219 C 1123.933594 244.925781 1149.1875 215.730469 1183.136719 198.753906 C 1217.085938 181.777344 1255.589844 179.085938 1291.609375 191.09375 C 1327.628906 203.101562 1356.816406 228.359375 1373.789062 262.316406 C 1390.765625 296.269531 1393.457031 334.78125 1381.449219 370.804688 C 1369.652344 406.832031 1344.1875 436.023438 1310.238281 453 Z M 1310.238281 453 " fill-opacity="1" fill-rule="nonzero"/></g><path fill="#231f20" d="M 587.996094 127.945312 C 558.808594 118.214844 527.757812 120.492188 500.226562 134.15625 C 472.695312 147.824219 452.199219 171.632812 442.472656 200.617188 C 432.742188 229.808594 435.019531 260.867188 448.679688 288.402344 C 462.34375 315.9375 486.148438 336.4375 515.128906 346.167969 C 544.316406 355.898438 575.367188 353.621094 602.902344 339.957031 C 630.433594 326.292969 650.925781 302.480469 660.65625 273.496094 C 670.386719 244.304688 668.109375 213.246094 654.445312 185.710938 C 640.78125 158.175781 617.183594 137.675781 587.996094 127.945312 Z M 620.703125 260.039062 C 614.492188 278.464844 601.660156 293.371094 584.269531 302.066406 C 566.882812 310.761719 547.214844 312.210938 528.792969 306 C 510.367188 299.789062 495.464844 286.953125 486.769531 269.5625 C 478.078125 252.171875 476.628906 232.5 482.835938 214.074219 C 489.046875 195.648438 501.882812 180.742188 519.269531 172.046875 C 536.660156 163.351562 556.324219 161.902344 574.746094 168.113281 C 593.171875 174.324219 608.074219 187.160156 616.769531 204.550781 C 625.464844 221.941406 626.707031 241.613281 620.703125 260.039062 Z M 620.703125 260.039062 " fill-opacity="1" fill-rule="nonzero"/><path fill="#231f20" d="M 750.289062 262.523438 C 753.808594 236.023438 751.738281 209.519531 744.90625 184.675781 L 786.308594 154.863281 L 755.878906 94.199219 L 704.953125 108.277344 C 691.914062 92.75 676.179688 78.878906 658.585938 67.699219 L 666.039062 21.941406 L 601.453125 0.617188 L 579.921875 38.917969 C 556.738281 35.605469 533.347656 36.433594 511.195312 40.988281 L 484.285156 3.515625 L 423.632812 33.949219 L 435.019531 74.53125 C 413.699219 89.851562 395.273438 109.3125 381.199219 132.5 L 336.070312 125.253906 L 314.542969 189.644531 L 353.25 211.589844 C 350.355469 234.160156 351.386719 256.726562 355.941406 278.257812 L 323.027344 302.066406 L 353.457031 362.730469 L 388.648438 353 C 404.589844 375.566406 425.289062 394.820312 449.714844 409.316406 L 442.472656 453.828125 L 506.851562 475.359375 L 529 436.230469 C 554.875 439.128906 580.542969 437.058594 604.765625 430.433594 L 631.261719 467.285156 L 691.914062 436.851562 L 679.285156 391.507812 C 696.054688 377.636719 710.542969 360.867188 722.34375 341.820312 L 767.46875 349.066406 L 789 284.675781 Z M 615.320312 364.179688 C 581.371094 381.15625 542.867188 383.847656 506.851562 371.839844 C 470.832031 359.832031 441.644531 334.574219 424.667969 300.617188 C 407.695312 266.664062 405.003906 228.152344 417.007812 192.128906 C 429.015625 156.105469 454.269531 126.910156 488.21875 109.933594 C 522.167969 92.957031 560.671875 90.265625 596.691406 102.273438 C 632.710938 114.28125 661.898438 139.539062 678.871094 173.496094 C 695.847656 207.449219 698.539062 245.960938 686.53125 281.984375 C 674.523438 318.007812 649.269531 347.203125 615.320312 364.179688 Z M 615.320312 364.179688 " fill-opacity="1" fill-rule="nonzero"/><path fill="#231f20" d="M 930.382812 936.855469 C 964.539062 902.691406 983.171875 857.558594 983.171875 809.316406 C 983.171875 761.078125 964.332031 715.734375 930.382812 681.78125 C 896.226562 647.617188 851.101562 628.984375 802.867188 628.984375 C 754.636719 628.984375 709.300781 647.824219 675.351562 681.78125 C 641.195312 715.941406 622.566406 761.078125 622.566406 809.316406 C 622.566406 857.558594 641.402344 902.898438 675.351562 936.855469 C 709.507812 971.015625 754.636719 989.648438 802.867188 989.648438 C 851.101562 989.648438 896.433594 970.808594 930.382812 936.855469 Z M 689.015625 809.316406 C 689.015625 778.882812 700.816406 750.308594 722.34375 728.777344 C 743.871094 707.246094 772.4375 695.445312 802.867188 695.445312 C 833.296875 695.445312 861.863281 707.246094 883.394531 728.777344 C 904.921875 750.308594 916.722656 778.882812 916.722656 809.316406 C 916.722656 839.753906 904.921875 868.324219 883.394531 889.855469 C 861.863281 911.386719 833.296875 923.1875 802.867188 923.1875 C 772.4375 923.1875 743.871094 911.386719 722.34375 889.855469 C 700.816406 868.324219 689.015625 839.753906 689.015625 809.316406 Z M 689.015625 809.316406 " fill-opacity="1" fill-rule="nonzero"/><path fill="#231f20" d="M 1179.414062 868.53125 L 1179.414062 762.113281 L 1110.894531 748.859375 C 1102.820312 707.660156 1086.671875 669.359375 1064.316406 635.609375 L 1111.101562 570.597656 L 1035.75 495.445312 L 967.023438 541.820312 C 939.699219 525.050781 909.683594 512.421875 877.804688 504.554688 L 866.210938 432.917969 L 759.8125 432.917969 L 746.5625 500.621094 C 710.335938 507.246094 676.179688 520.082031 645.335938 537.886719 L 586.753906 495.445312 L 511.609375 570.597656 L 548.664062 625.464844 C 524.445312 658.796875 506.851562 697.101562 497.328125 738.507812 L 426.738281 750.101562 L 426.738281 856.523438 L 495.257812 869.773438 C 502.089844 904.96875 514.714844 937.890625 532.3125 967.703125 L 494.84375 1019.257812 L 569.988281 1094.410156 L 617.390625 1062.320312 C 652.167969 1087.785156 692.535156 1106.421875 736.210938 1115.945312 L 747.597656 1185.71875 L 854 1185.71875 L 867.453125 1116.359375 C 907.40625 1108.078125 944.667969 1091.925781 977.375 1069.980469 L 1035.128906 1111.597656 L 1110.273438 1036.441406 L 1069.285156 975.15625 C 1087.292969 946.171875 1100.75 914.078125 1108.617188 879.917969 Z M 579.921875 809.316406 C 579.921875 749.6875 603.109375 693.789062 645.128906 651.550781 C 687.152344 609.523438 743.25 586.335938 802.867188 586.335938 C 862.484375 586.335938 918.378906 609.523438 960.605469 651.550781 C 1002.628906 693.582031 1025.8125 749.6875 1025.8125 809.316406 C 1025.8125 868.945312 1002.628906 924.847656 960.605469 967.082031 C 918.585938 1009.109375 862.484375 1032.300781 802.867188 1032.300781 C 743.25 1032.300781 687.359375 1009.109375 645.128906 967.082031 C 603.109375 924.84375 579.921875 868.738281 579.921875 809.316406 Z M 579.921875 809.316406 " fill-opacity="1" fill-rule="nonzero"/></svg>