<svg xmlns="http://www.w3.org/2000/svg" xmlns:xlink="http://www.w3.org/1999/xlink" width="2000" zoomAndPan="magnify" viewBox="0 0 1500 1499.999933" height="2000" preserveAspectRatio="xMidYMid meet" version="1.0"><defs><clipPath id="650276b4c6"><path d="M 99.785156 0 L 1193.585938 0 L 1193.585938 1500 L 99.785156 1500 Z M 99.785156 0 " clip-rule="nonzero"/></clipPath><clipPath id="03727aa58b"><path d="M 766.195312 641.441406 L 1400.210938 641.441406 L 1400.210938 1374 L 766.195312 1374 Z M 766.195312 641.441406 " clip-rule="nonzero"/></clipPath></defs><path fill="#2e2a2b" d="M 241.601562 1007.816406 L 241.601562 322.609375 C 241.601562 312.09375 233.082031 303.574219 222.566406 303.574219 C 212.054688 303.574219 203.53125 312.09375 203.53125 322.609375 L 203.53125 1007.816406 C 203.53125 1018.328125 212.054688 1026.855469 222.566406 1026.855469 C 233.082031 1026.855469 241.601562 1018.328125 241.601562 1007.816406 " fill-opacity="1" fill-rule="nonzero"/><path fill="#2e2a2b" d="M 941.726562 213.824219 L 948.8125 212.402344 L 948.660156 1111.523438 L 317.179688 1231.007812 C 306.851562 1232.964844 300.0625 1242.925781 302.015625 1253.246094 C 303.742188 1262.382812 311.726562 1268.746094 320.695312 1268.746094 C 321.871094 1268.746094 323.058594 1268.636719 324.257812 1268.410156 L 971.230469 1146.003906 C 980.21875 1144.296875 986.726562 1136.449219 986.726562 1127.300781 L 986.882812 189.183594 C 986.882812 183.484375 984.324219 178.074219 979.914062 174.464844 C 975.503906 170.847656 969.703125 169.402344 964.109375 170.519531 L 934.253906 176.492188 C 923.945312 178.5625 917.257812 188.585938 919.328125 198.898438 C 921.390625 209.199219 931.414062 215.890625 941.726562 213.824219 " fill-opacity="1" fill-rule="nonzero"/><path fill="#2e2a2b" d="M 1038.925781 448.601562 L 1057.484375 447.097656 L 1057.378906 562.191406 C 1057.371094 572.703125 1065.882812 581.226562 1076.390625 581.242188 C 1076.402344 581.242188 1076.40625 581.242188 1076.414062 581.242188 C 1086.917969 581.242188 1095.4375 572.730469 1095.449219 562.226562 L 1095.570312 426.476562 C 1095.578125 421.160156 1093.359375 416.078125 1089.449219 412.46875 C 1085.546875 408.867188 1080.304688 407.054688 1075 407.484375 L 1035.859375 410.65625 C 1025.378906 411.503906 1017.570312 420.6875 1018.421875 431.164062 C 1019.269531 441.644531 1028.445312 449.445312 1038.925781 448.601562 " fill-opacity="1" fill-rule="nonzero"/><path fill="#2e2a2b" d="M 684.097656 1301.199219 L 374.546875 1322.667969 C 364.058594 1323.394531 356.144531 1332.484375 356.875 1342.972656 C 357.570312 1353.011719 365.933594 1360.6875 375.84375 1360.6875 C 376.285156 1360.6875 376.730469 1360.675781 377.179688 1360.644531 L 686.734375 1339.175781 C 697.21875 1338.449219 705.128906 1329.359375 704.402344 1318.871094 C 703.679688 1308.386719 694.601562 1300.488281 684.097656 1301.199219 " fill-opacity="1" fill-rule="nonzero"/><g clip-path="url(#650276b4c6)"><path fill="#2e2a2b" d="M 137.996094 331.359375 C 138.003906 298.324219 138.007812 274.457031 147.988281 258.738281 C 158.386719 242.371094 182.621094 230.855469 226.570312 221.40625 C 226.773438 221.363281 226.964844 221.292969 227.167969 221.242188 C 227.367188 221.195312 227.570312 221.164062 227.769531 221.109375 L 850.160156 44.230469 L 850.019531 942.769531 L 217.628906 1122.484375 C 182.953125 1130.46875 156.691406 1140.636719 137.863281 1153.414062 Z M 1174 1375.050781 C 1173.992188 1375.050781 1173.988281 1375.050781 1173.976562 1375.050781 C 1163.476562 1375.050781 1154.957031 1383.558594 1154.941406 1394.066406 L 1154.855469 1461.933594 L 356.835938 1461.796875 C 356.066406 1461.71875 355.289062 1461.675781 354.496094 1461.691406 C 292.347656 1463.054688 271.988281 1450.746094 260.546875 1431.824219 C 260.375 1431.539062 260.195312 1431.261719 260.011719 1430.988281 C 259.71875 1430.554688 230.367188 1387.246094 200.703125 1339.617188 C 146.644531 1252.839844 140.007812 1229.714844 139.261719 1224.695312 C 137.15625 1210.515625 141.242188 1199.835938 152.511719 1190.050781 C 166.636719 1177.789062 191.582031 1167.5 226.660156 1159.472656 C 226.757812 1159.445312 226.847656 1159.417969 226.945312 1159.386719 C 227.167969 1159.339844 227.390625 1159.289062 227.613281 1159.222656 L 874.25 975.460938 C 882.433594 973.132812 888.082031 965.65625 888.082031 957.152344 L 888.234375 19.035156 C 888.234375 13.070312 885.4375 7.449219 880.679688 3.847656 C 875.910156 0.25 869.742188 -0.90625 863.996094 0.726562 L 217.910156 184.335938 C 162.863281 196.25 132.316406 212.410156 115.855469 238.324219 C 99.941406 263.382812 99.933594 293.378906 99.929688 331.351562 L 99.785156 1212.722656 C 99.785156 1214.75 100.105469 1216.6875 100.6875 1218.515625 C 100.710938 1222.371094 101.011719 1226.292969 101.605469 1230.289062 C 103.472656 1242.839844 112.429688 1269.921875 168.445312 1359.847656 C 196.96875 1405.617188 225.179688 1447.445312 228.234375 1451.957031 C 248.851562 1485.679688 283.222656 1499.863281 345.515625 1499.863281 C 348.0625 1499.863281 350.671875 1499.835938 353.316406 1499.785156 C 353.839844 1499.828125 354.375 1499.863281 354.914062 1499.863281 L 1173.863281 1500.007812 C 1173.863281 1500.007812 1173.863281 1500.007812 1173.871094 1500.007812 C 1184.367188 1500.007812 1192.886719 1491.496094 1192.898438 1480.992188 L 1193.015625 1394.109375 C 1193.027344 1383.597656 1184.515625 1375.066406 1174 1375.050781 " fill-opacity="1" fill-rule="nonzero"/></g><path fill="#2e2a2b" d="M 1132.609375 559.316406 L 1154.890625 559.324219 L 1154.890625 625.945312 C 1154.890625 636.460938 1163.414062 644.980469 1173.921875 644.980469 C 1184.4375 644.980469 1192.957031 636.460938 1192.957031 625.945312 L 1192.957031 540.289062 C 1192.957031 529.777344 1184.4375 521.257812 1173.929688 521.25 L 1132.609375 521.25 C 1122.097656 521.25 1113.574219 529.769531 1113.574219 540.277344 C 1113.574219 550.796875 1122.09375 559.316406 1132.609375 559.316406 " fill-opacity="1" fill-rule="nonzero"/><g clip-path="url(#03727aa58b)"><path fill="#2e2a2b" d="M 1387.273438 937.378906 L 1322.359375 920.269531 C 1316.535156 900.757812 1308.679688 881.820312 1298.964844 863.847656 L 1332.773438 805.816406 C 1336.742188 799.011719 1335.625 790.371094 1330.058594 784.800781 L 1257.292969 712.039062 C 1254.019531 708.761719 1249.660156 706.953125 1245.023438 706.953125 C 1241.953125 706.953125 1238.933594 707.769531 1236.28125 709.316406 L 1178.253906 743.136719 C 1160.285156 733.410156 1141.347656 725.5625 1121.828125 719.738281 L 1104.71875 654.820312 C 1102.707031 647.203125 1095.808594 641.882812 1087.929688 641.882812 L 1037.390625 641.882812 C 1027.800781 641.882812 1020.035156 649.660156 1020.035156 659.242188 C 1020.035156 668.832031 1027.800781 676.601562 1037.390625 676.601562 L 1074.554688 676.601562 L 1090.789062 738.207031 C 1092.390625 744.257812 1097.140625 749 1103.199219 750.578125 C 1126.453125 756.644531 1148.800781 765.90625 1169.609375 778.117188 C 1172.273438 779.671875 1175.3125 780.5 1178.394531 780.5 C 1181.464844 780.5 1184.480469 779.691406 1187.136719 778.140625 L 1242.203125 746.046875 L 1296.046875 799.886719 L 1263.953125 854.964844 C 1260.804688 860.371094 1260.8125 867.085938 1263.980469 872.488281 C 1276.195312 893.316406 1285.457031 915.65625 1291.523438 938.898438 C 1293.097656 944.957031 1297.835938 949.710938 1303.894531 951.308594 L 1365.488281 967.539062 L 1365.488281 1048.097656 L 1303.894531 1064.332031 C 1297.835938 1065.933594 1293.097656 1070.675781 1291.523438 1076.742188 C 1285.457031 1099.980469 1276.195312 1122.328125 1263.980469 1143.15625 C 1260.8125 1148.554688 1260.804688 1155.261719 1263.957031 1160.679688 L 1296.046875 1215.746094 L 1242.203125 1269.589844 L 1187.136719 1237.496094 C 1184.480469 1235.953125 1181.464844 1235.140625 1178.394531 1235.140625 C 1175.3125 1235.140625 1172.273438 1235.960938 1169.609375 1237.523438 C 1148.800781 1249.730469 1126.453125 1259 1103.199219 1265.066406 C 1097.140625 1266.640625 1092.390625 1271.378906 1090.789062 1277.4375 L 1074.554688 1339.03125 L 998.40625 1339.03125 L 982.167969 1277.4375 C 980.578125 1271.378906 975.816406 1266.640625 969.765625 1265.066406 C 946.519531 1259 924.171875 1249.730469 903.34375 1237.523438 C 900.691406 1235.960938 897.652344 1235.132812 894.570312 1235.132812 C 891.503906 1235.132812 888.476562 1235.953125 885.832031 1237.496094 L 830.753906 1269.589844 L 795.960938 1234.726562 C 792.816406 1231.574219 788.46875 1229.617188 783.664062 1229.617188 C 774.078125 1229.617188 766.304688 1237.386719 766.304688 1246.976562 C 766.304688 1251.445312 768.007812 1255.511719 770.785156 1258.585938 L 770.769531 1258.597656 L 771.050781 1258.878906 C 771.273438 1259.113281 771.507812 1259.347656 771.746094 1259.578125 L 815.664062 1303.601562 C 818.945312 1306.875 823.304688 1308.679688 827.941406 1308.679688 C 831.003906 1308.679688 834.03125 1307.867188 836.675781 1306.320312 L 894.714844 1272.5 C 912.679688 1282.222656 931.617188 1290.070312 951.128906 1295.902344 L 968.246094 1360.824219 C 970.25 1368.4375 977.160156 1373.753906 985.027344 1373.753906 L 1087.929688 1373.753906 C 1095.808594 1373.753906 1102.707031 1368.4375 1104.710938 1360.824219 L 1121.828125 1295.902344 C 1141.347656 1290.070312 1160.285156 1282.222656 1178.253906 1272.5 L 1236.28125 1306.324219 C 1238.933594 1307.867188 1241.953125 1308.6875 1245.011719 1308.6875 C 1249.660156 1308.6875 1254.019531 1306.875 1257.292969 1303.601562 L 1330.058594 1230.835938 C 1335.625 1225.273438 1336.742188 1216.628906 1332.773438 1209.824219 L 1298.964844 1151.789062 C 1308.679688 1133.824219 1316.535156 1114.878906 1322.359375 1095.371094 L 1387.273438 1078.253906 C 1394.894531 1076.25 1400.210938 1069.351562 1400.210938 1061.472656 L 1400.210938 954.160156 C 1400.210938 946.292969 1394.894531 939.382812 1387.273438 937.378906 " fill-opacity="1" fill-rule="nonzero"/></g><path fill="#2e2a2b" d="M 1018.105469 1197.375 C 1022.289062 1197.652344 1026.535156 1197.785156 1030.738281 1197.785156 C 1135.492188 1197.785156 1220.707031 1112.566406 1220.707031 1007.816406 C 1220.707031 958.214844 1201.703125 911.273438 1167.199219 875.65625 C 1132.773438 840.113281 1086.625 819.625 1037.253906 817.960938 C 1026.738281 817.613281 1017.941406 825.832031 1017.59375 836.339844 C 1017.234375 846.84375 1025.464844 855.648438 1035.972656 856.003906 C 1118.21875 858.78125 1182.640625 925.464844 1182.640625 1007.816406 C 1182.640625 1091.574219 1114.5 1159.722656 1030.738281 1159.722656 C 1027.367188 1159.722656 1023.957031 1159.609375 1020.601562 1159.386719 C 1010.121094 1158.703125 1001.054688 1166.644531 1000.363281 1177.132812 C 999.675781 1187.628906 1007.617188 1196.6875 1018.105469 1197.375 " fill-opacity="1" fill-rule="nonzero"/><path fill="#2e2a2b" d="M 422.488281 350.894531 L 422.050781 467.859375 C 422.019531 476.175781 427.398438 483.554688 435.335938 486.074219 L 539.824219 519.203125 C 545.59375 521.027344 551.898438 520.003906 556.792969 516.433594 L 661.691406 439.890625 C 666.585938 436.320312 669.484375 430.640625 669.503906 424.585938 L 669.992188 294.484375 C 704.851562 316.339844 724.867188 353.171875 724.703125 397.300781 C 724.476562 458.09375 686.792969 521.472656 626.351562 562.710938 C 621.175781 566.242188 618.070312 572.09375 618.046875 578.367188 L 617.230469 797.289062 C 617.089844 834.09375 581.824219 872.480469 540.21875 881.105469 C 534.550781 882.285156 528.941406 882.875 523.542969 882.875 C 523.542969 882.875 523.542969 882.875 523.539062 882.875 C 507.585938 882.875 493.625 877.675781 484.21875 868.234375 C 475.890625 859.878906 471.515625 848.570312 471.566406 835.527344 L 472.382812 616.605469 C 472.414062 607.96875 466.632812 600.398438 458.300781 598.152344 C 401.714844 582.910156 366.695312 537.457031 366.914062 479.523438 C 367.082031 434.804688 387.339844 388.78125 422.488281 350.894531 Z M 434.261719 630.488281 L 433.496094 835.386719 C 433.410156 858.433594 441.847656 879.644531 457.253906 895.105469 C 473.847656 911.765625 497.390625 920.941406 523.535156 920.945312 C 523.539062 920.945312 523.542969 920.945312 523.542969 920.945312 C 531.53125 920.945312 539.742188 920.085938 547.949219 918.378906 C 576.425781 912.480469 603.179688 896.929688 623.28125 874.605469 C 643.828125 851.78125 655.195312 824.375 655.296875 797.433594 L 656.078125 588.304688 C 721.871094 539.984375 762.507812 467.6875 762.769531 397.445312 C 762.902344 362.417969 752.929688 329.832031 733.9375 303.21875 C 715.519531 277.417969 689.09375 257.765625 657.519531 246.402344 C 651.695312 244.300781 645.222656 245.167969 640.15625 248.71875 C 635.085938 252.265625 632.0625 258.054688 632.035156 264.238281 L 631.476562 414.816406 L 542.140625 479.996094 L 460.171875 454.007812 L 460.71875 307.800781 C 460.746094 300.527344 456.628906 293.878906 450.109375 290.652344 C 443.589844 287.441406 435.804688 288.21875 430.050781 292.660156 C 366.933594 341.402344 329.101562 411.207031 328.84375 479.382812 C 328.703125 517.089844 340.15625 551.652344 361.964844 579.324219 C 380.234375 602.503906 405.027344 620.007812 434.261719 630.488281 " fill-opacity="1" fill-rule="nonzero"/></svg>