<svg xmlns="http://www.w3.org/2000/svg" xmlns:xlink="http://www.w3.org/1999/xlink" width="4096" zoomAndPan="magnify" viewBox="0 0 3072 3071.999987" height="4096" preserveAspectRatio="xMidYMid meet" version="1.0"><defs><clipPath id="78acc32094"><path d="M 591 833 L 2638.710938 833 L 2638.710938 2580 L 591 2580 Z M 591 833 " clip-rule="nonzero"/></clipPath><clipPath id="df33c5a358"><path d="M 433.152344 976 L 693 976 L 693 2258 L 433.152344 2258 Z M 433.152344 976 " clip-rule="nonzero"/></clipPath><clipPath id="d06b52398d"><path d="M 1003 2477 L 2072 2477 L 2072 2763.265625 L 1003 2763.265625 Z M 1003 2477 " clip-rule="nonzero"/></clipPath></defs><g clip-path="url(#78acc32094)"><path fill="#ffffff" d="M 692.351562 2477.988281 L 2588.101562 2477.988281 C 2616.03125 2477.988281 2638.710938 2500.644531 2638.710938 2528.597656 C 2638.710938 2556.554688 2616.03125 2579.210938 2588.101562 2579.210938 L 641.742188 2579.210938 C 613.785156 2579.210938 591.132812 2556.554688 591.132812 2528.597656 L 591.132812 884.585938 C 591.132812 856.65625 613.785156 833.976562 641.742188 833.976562 C 669.671875 833.976562 692.351562 856.65625 692.351562 884.585938 L 692.351562 2477.988281 " fill-opacity="1" fill-rule="evenodd"/></g><path fill="#ffffff" d="M 1860.492188 2427.378906 L 1860.492188 916.300781 C 1860.492188 902.324219 1871.816406 890.996094 1885.796875 890.996094 L 2203.355469 890.996094 C 2217.332031 890.996094 2228.660156 902.324219 2228.660156 916.300781 L 2228.660156 2427.378906 L 1860.492188 2427.378906 " fill-opacity="1" fill-rule="evenodd"/><path fill="#ffffff" d="M 1376.738281 2427.378906 L 1376.738281 1316.90625 C 1376.738281 1302.925781 1388.066406 1291.601562 1402.019531 1291.601562 L 1719.601562 1291.601562 C 1733.582031 1291.601562 1744.90625 1302.925781 1744.90625 1316.90625 L 1744.90625 2427.378906 L 1376.738281 2427.378906 " fill-opacity="1" fill-rule="evenodd"/><path fill="#ffffff" d="M 892.960938 2427.378906 L 892.960938 1657.039062 C 892.960938 1643.085938 904.289062 1631.734375 918.265625 1631.734375 L 1235.824219 1631.734375 C 1249.804688 1631.734375 1261.128906 1643.085938 1261.128906 1657.039062 L 1261.128906 2427.378906 L 892.960938 2427.378906 " fill-opacity="1" fill-rule="evenodd"/><path fill="#ffffff" d="M 2089.082031 559.203125 L 2085.890625 559.796875 C 2058.425781 564.945312 2031.960938 546.847656 2026.8125 519.378906 C 2021.664062 491.9375 2039.785156 465.476562 2067.226562 460.328125 L 2248.632812 426.296875 C 2265.855469 423.078125 2283.542969 428.996094 2295.355469 441.945312 C 2307.148438 454.894531 2311.445312 473.121094 2306.632812 489.929688 L 2253.730469 675.121094 C 2247.527344 696.847656 2227.65625 711.828125 2205.078125 711.828125 C 2200.367188 711.828125 2195.707031 711.1875 2191.175781 709.898438 C 2164.328125 702.253906 2148.726562 674.167969 2156.398438 647.320312 L 2161.289062 630.226562 L 2013.246094 771.527344 C 2003.824219 780.511719 1991.3125 785.53125 1978.3125 785.53125 L 1785.835938 785.53125 L 1517.472656 1179.15625 C 1508.027344 1192.980469 1492.375 1201.246094 1475.640625 1201.246094 L 1339.902344 1201.246094 L 1128.195312 1511.722656 C 1118.773438 1525.546875 1103.125 1533.835938 1086.390625 1533.835938 L 829.378906 1533.835938 C 801.449219 1533.835938 778.769531 1511.183594 778.769531 1483.226562 C 778.769531 1455.296875 801.449219 1432.617188 829.378906 1432.617188 L 1059.617188 1432.617188 L 1271.324219 1122.136719 C 1280.746094 1108.3125 1296.398438 1100.023438 1313.128906 1100.023438 L 1448.894531 1100.023438 L 1717.261719 706.421875 C 1726.707031 692.574219 1742.359375 684.3125 1759.089844 684.3125 L 1958.027344 684.3125 L 2089.082031 559.203125 " fill-opacity="1" fill-rule="evenodd"/><g clip-path="url(#df33c5a358)"><path fill="#ffffff" d="M 641.742188 2257.402344 L 483.761719 2257.402344 C 455.804688 2257.402344 433.152344 2234.75 433.152344 2206.792969 C 433.152344 2178.863281 455.804688 2156.183594 483.761719 2156.183594 L 641.742188 2156.183594 C 669.671875 2156.183594 692.351562 2178.863281 692.351562 2206.792969 C 692.351562 2234.75 669.671875 2257.402344 641.742188 2257.402344 Z M 641.742188 1962.472656 L 483.761719 1962.472656 C 455.804688 1962.472656 433.152344 1939.820312 433.152344 1911.863281 C 433.152344 1883.933594 455.804688 1861.253906 483.761719 1861.253906 L 641.742188 1861.253906 C 669.671875 1861.253906 692.351562 1883.933594 692.351562 1911.863281 C 692.351562 1939.820312 669.671875 1962.472656 641.742188 1962.472656 Z M 641.742188 1667.542969 L 483.761719 1667.542969 C 455.804688 1667.542969 433.152344 1644.863281 433.152344 1616.933594 C 433.152344 1588.976562 455.804688 1566.324219 483.761719 1566.324219 L 641.742188 1566.324219 C 669.671875 1566.324219 692.351562 1588.976562 692.351562 1616.933594 C 692.351562 1644.890625 669.671875 1667.542969 641.742188 1667.542969 Z M 641.742188 1372.613281 L 483.761719 1372.613281 C 455.804688 1372.613281 433.152344 1349.957031 433.152344 1322 C 433.152344 1294.070312 455.804688 1271.390625 483.761719 1271.390625 L 641.742188 1271.390625 C 669.671875 1271.390625 692.351562 1294.070312 692.351562 1322 C 692.351562 1349.957031 669.671875 1372.613281 641.742188 1372.613281 Z M 641.742188 1077.679688 L 483.761719 1077.679688 C 455.804688 1077.679688 433.152344 1055.027344 433.152344 1027.070312 C 433.152344 999.140625 455.804688 976.460938 483.761719 976.460938 L 641.742188 976.460938 C 669.671875 976.460938 692.351562 999.140625 692.351562 1027.070312 C 692.351562 1055.027344 669.671875 1077.679688 641.742188 1077.679688 " fill-opacity="1" fill-rule="evenodd"/></g><g clip-path="url(#d06b52398d)"><path fill="#ffffff" d="M 2021.148438 2763.265625 C 1993.191406 2763.265625 1970.515625 2740.589844 1970.515625 2712.65625 L 1970.515625 2528.597656 C 1970.515625 2500.667969 1993.191406 2477.988281 2021.148438 2477.988281 C 2049.078125 2477.988281 2071.757812 2500.667969 2071.757812 2528.597656 L 2071.757812 2712.65625 C 2071.757812 2740.589844 2049.078125 2763.265625 2021.148438 2763.265625 Z M 1537.398438 2763.265625 C 1509.441406 2763.265625 1486.789062 2740.589844 1486.789062 2712.65625 L 1486.789062 2528.597656 C 1486.789062 2500.667969 1509.441406 2477.988281 1537.398438 2477.988281 C 1565.328125 2477.988281 1588.007812 2500.667969 1588.007812 2528.597656 L 1588.007812 2712.65625 C 1588.007812 2740.589844 1565.328125 2763.265625 1537.398438 2763.265625 Z M 1053.648438 2763.265625 C 1025.691406 2763.265625 1003.011719 2740.589844 1003.011719 2712.65625 L 1003.011719 2528.597656 C 1003.011719 2500.667969 1025.691406 2477.988281 1053.648438 2477.988281 C 1081.578125 2477.988281 1104.257812 2500.667969 1104.257812 2528.597656 L 1104.257812 2712.65625 C 1104.257812 2740.589844 1081.578125 2763.265625 1053.648438 2763.265625 " fill-opacity="1" fill-rule="evenodd"/></g><path fill="#ffffff" d="M 1088.503906 506.945312 C 1056.761719 517.550781 1033.824219 547.566406 1033.824219 582.808594 C 1033.824219 618.074219 1056.761719 648.089844 1088.503906 658.699219 Z M 1139.113281 869.246094 C 1170.851562 858.636719 1193.789062 828.648438 1193.789062 793.382812 C 1193.789062 758.113281 1170.851562 728.125 1139.113281 717.519531 Z M 1088.503906 921.5 L 1088.503906 957.257812 C 1088.503906 971.234375 1099.828125 982.5625 1113.808594 982.5625 C 1127.785156 982.5625 1139.113281 971.234375 1139.113281 957.257812 L 1139.113281 921.5 C 1199.039062 909.6875 1244.398438 856.734375 1244.398438 793.382812 C 1244.398438 730.03125 1199.039062 677.078125 1139.113281 665.261719 L 1139.113281 506.945312 C 1170.851562 517.578125 1193.789062 547.566406 1193.789062 582.808594 C 1193.789062 596.785156 1205.113281 608.113281 1219.09375 608.113281 C 1233.070312 608.113281 1244.398438 596.785156 1244.398438 582.808594 C 1244.398438 519.457031 1199.039062 466.503906 1139.113281 454.6875 L 1139.113281 418.933594 C 1139.113281 404.953125 1127.785156 393.628906 1113.808594 393.628906 C 1099.828125 393.628906 1088.503906 404.953125 1088.503906 418.933594 L 1088.503906 454.6875 C 1028.574219 466.53125 983.214844 519.457031 983.214844 582.808594 C 983.214844 646.160156 1028.574219 699.113281 1088.503906 710.929688 L 1088.503906 869.246094 C 1056.761719 858.636719 1033.824219 828.648438 1033.824219 793.382812 C 1033.824219 779.402344 1022.5 768.078125 1008.519531 768.078125 C 994.542969 768.078125 983.214844 779.402344 983.214844 793.382812 C 983.214844 856.734375 1028.574219 909.6875 1088.503906 921.5 Z M 1113.808594 1067.539062 C 904.574219 1067.539062 734.363281 897.328125 734.363281 688.09375 C 734.363281 478.859375 904.574219 308.625 1113.808594 308.625 C 1323.039062 308.625 1493.25 478.859375 1493.25 688.09375 C 1493.25 897.328125 1323.039062 1067.539062 1113.808594 1067.539062 " fill-opacity="1" fill-rule="evenodd"/></svg>