<svg xmlns="http://www.w3.org/2000/svg" xmlns:xlink="http://www.w3.org/1999/xlink" width="2000" zoomAndPan="magnify" viewBox="0 0 1500 1499.999933" height="2000" preserveAspectRatio="xMidYMid meet" version="1.0"><defs><clipPath id="aa81e23f2e"><path d="M 171 318 L 1424.917969 318 L 1424.917969 1387 L 171 1387 Z M 171 318 " clip-rule="nonzero"/></clipPath><clipPath id="29778b043b"><path d="M 423 1324 L 1078 1324 L 1078 1499.0625 L 423 1499.0625 Z M 423 1324 " clip-rule="nonzero"/></clipPath></defs><g clip-path="url(#aa81e23f2e)"><path fill="#8c52ff" d="M 233.644531 1324.457031 L 1393.941406 1324.457031 C 1411.039062 1324.457031 1424.917969 1338.320312 1424.917969 1355.433594 C 1424.917969 1372.542969 1411.039062 1386.40625 1393.941406 1386.40625 L 202.667969 1386.40625 C 185.558594 1386.40625 171.691406 1372.542969 171.691406 1355.433594 L 171.691406 349.210938 C 171.691406 332.113281 185.558594 318.234375 202.667969 318.234375 C 219.761719 318.234375 233.644531 332.113281 233.644531 349.210938 L 233.644531 1324.457031 " fill-opacity="1" fill-rule="evenodd"/></g><path fill="#8c52ff" d="M 948.605469 1293.480469 L 948.605469 368.621094 C 948.605469 360.066406 955.539062 353.132812 964.09375 353.132812 L 1158.457031 353.132812 C 1167.011719 353.132812 1173.945312 360.066406 1173.945312 368.621094 L 1173.945312 1293.480469 L 948.605469 1293.480469 " fill-opacity="1" fill-rule="evenodd"/><path fill="#8c52ff" d="M 652.527344 1293.480469 L 652.527344 613.8125 C 652.527344 605.253906 659.457031 598.324219 667.996094 598.324219 L 862.375 598.324219 C 870.929688 598.324219 877.863281 605.253906 877.863281 613.8125 L 877.863281 1293.480469 L 652.527344 1293.480469 " fill-opacity="1" fill-rule="evenodd"/><path fill="#8c52ff" d="M 356.429688 1293.480469 L 356.429688 821.992188 C 356.429688 813.453125 363.359375 806.503906 371.917969 806.503906 L 566.277344 806.503906 C 574.835938 806.503906 581.765625 813.453125 581.765625 821.992188 L 581.765625 1293.480469 L 356.429688 1293.480469 " fill-opacity="1" fill-rule="evenodd"/><path fill="#8c52ff" d="M 1088.519531 150.058594 L 1086.5625 150.417969 C 1069.753906 153.570312 1053.554688 142.496094 1050.40625 125.683594 C 1047.253906 108.886719 1058.34375 92.691406 1075.140625 89.539062 L 1186.171875 68.710938 C 1196.710938 66.742188 1207.535156 70.363281 1214.769531 78.289062 C 1221.984375 86.214844 1224.617188 97.371094 1221.667969 107.660156 L 1189.292969 221.003906 C 1185.496094 234.304688 1173.332031 243.472656 1159.511719 243.472656 C 1156.628906 243.472656 1153.777344 243.078125 1151.003906 242.289062 C 1134.570312 237.613281 1125.023438 220.421875 1129.71875 203.988281 L 1132.710938 193.527344 L 1042.101562 280.011719 C 1036.335938 285.507812 1028.675781 288.582031 1020.722656 288.582031 L 902.914062 288.582031 L 738.664062 529.5 C 732.878906 537.960938 723.300781 543.019531 713.058594 543.019531 L 629.980469 543.019531 L 500.402344 733.050781 C 494.636719 741.511719 485.058594 746.585938 474.816406 746.585938 L 317.511719 746.585938 C 300.417969 746.585938 286.535156 732.71875 286.535156 715.609375 C 286.535156 698.511719 300.417969 684.632812 317.511719 684.632812 L 458.429688 684.632812 L 588.007812 494.601562 C 593.773438 486.140625 603.351562 481.070312 613.59375 481.070312 L 696.6875 481.070312 L 860.941406 240.164062 C 866.722656 231.6875 876.304688 226.628906 886.546875 226.628906 L 1008.304688 226.628906 L 1088.519531 150.058594 " fill-opacity="1" fill-rule="evenodd"/><path fill="#8c52ff" d="M 202.667969 1189.445312 L 105.976562 1189.445312 C 88.863281 1189.445312 75 1175.582031 75 1158.46875 C 75 1141.375 88.863281 1127.496094 105.976562 1127.496094 L 202.667969 1127.496094 C 219.761719 1127.496094 233.644531 1141.375 233.644531 1158.46875 C 233.644531 1175.582031 219.761719 1189.445312 202.667969 1189.445312 Z M 202.667969 1008.933594 L 105.976562 1008.933594 C 88.863281 1008.933594 75 995.066406 75 977.957031 C 75 960.863281 88.863281 946.980469 105.976562 946.980469 L 202.667969 946.980469 C 219.761719 946.980469 233.644531 960.863281 233.644531 977.957031 C 233.644531 995.066406 219.761719 1008.933594 202.667969 1008.933594 Z M 202.667969 828.417969 L 105.976562 828.417969 C 88.863281 828.417969 75 814.539062 75 797.445312 C 75 780.332031 88.863281 766.46875 105.976562 766.46875 L 202.667969 766.46875 C 219.761719 766.46875 233.644531 780.332031 233.644531 797.445312 C 233.644531 814.554688 219.761719 828.417969 202.667969 828.417969 Z M 202.667969 647.90625 L 105.976562 647.90625 C 88.863281 647.90625 75 634.042969 75 616.929688 C 75 599.835938 88.863281 585.953125 105.976562 585.953125 L 202.667969 585.953125 C 219.761719 585.953125 233.644531 599.835938 233.644531 616.929688 C 233.644531 634.042969 219.761719 647.90625 202.667969 647.90625 Z M 202.667969 467.394531 L 105.976562 467.394531 C 88.863281 467.394531 75 453.527344 75 436.417969 C 75 419.320312 88.863281 405.441406 105.976562 405.441406 L 202.667969 405.441406 C 219.761719 405.441406 233.644531 419.320312 233.644531 436.417969 C 233.644531 453.527344 219.761719 467.394531 202.667969 467.394531 " fill-opacity="1" fill-rule="evenodd"/><g clip-path="url(#29778b043b)"><path fill="#8c52ff" d="M 1046.9375 1499.0625 C 1029.828125 1499.0625 1015.945312 1485.179688 1015.945312 1468.085938 L 1015.945312 1355.433594 C 1015.945312 1338.335938 1029.828125 1324.457031 1046.9375 1324.457031 C 1064.035156 1324.457031 1077.914062 1338.335938 1077.914062 1355.433594 L 1077.914062 1468.085938 C 1077.914062 1485.179688 1064.035156 1499.0625 1046.9375 1499.0625 Z M 750.855469 1499.0625 C 733.746094 1499.0625 719.882812 1485.179688 719.882812 1468.085938 L 719.882812 1355.433594 C 719.882812 1338.335938 733.746094 1324.457031 750.855469 1324.457031 C 767.953125 1324.457031 781.832031 1338.335938 781.832031 1355.433594 L 781.832031 1468.085938 C 781.832031 1485.179688 767.953125 1499.0625 750.855469 1499.0625 Z M 454.777344 1499.0625 C 437.664062 1499.0625 423.785156 1485.179688 423.785156 1468.085938 L 423.785156 1355.433594 C 423.785156 1338.335938 437.664062 1324.457031 454.777344 1324.457031 C 471.871094 1324.457031 485.75 1338.335938 485.75 1355.433594 L 485.75 1468.085938 C 485.75 1485.179688 471.871094 1499.0625 454.777344 1499.0625 " fill-opacity="1" fill-rule="evenodd"/></g><path fill="#8c52ff" d="M 476.109375 118.074219 C 456.683594 124.5625 442.644531 142.933594 442.644531 164.503906 C 442.644531 186.089844 456.683594 204.460938 476.109375 210.953125 Z M 507.085938 339.820312 C 526.511719 333.328125 540.550781 314.972656 540.550781 293.386719 C 540.550781 271.800781 526.511719 253.445312 507.085938 246.953125 Z M 476.109375 371.804688 L 476.109375 393.6875 C 476.109375 402.242188 483.042969 409.175781 491.597656 409.175781 C 500.152344 409.175781 507.085938 402.242188 507.085938 393.6875 L 507.085938 371.804688 C 543.765625 364.570312 571.527344 332.160156 571.527344 293.386719 C 571.527344 254.613281 543.765625 222.203125 507.085938 214.96875 L 507.085938 118.074219 C 526.511719 124.578125 540.550781 142.933594 540.550781 164.503906 C 540.550781 173.058594 547.480469 179.992188 556.039062 179.992188 C 564.59375 179.992188 571.527344 173.058594 571.527344 164.503906 C 571.527344 125.730469 543.765625 93.320312 507.085938 86.089844 L 507.085938 64.203125 C 507.085938 55.648438 500.152344 48.714844 491.597656 48.714844 C 483.042969 48.714844 476.109375 55.648438 476.109375 64.203125 L 476.109375 86.089844 C 439.429688 93.335938 411.667969 125.730469 411.667969 164.503906 C 411.667969 203.28125 439.429688 235.6875 476.109375 242.921875 L 476.109375 339.820312 C 456.683594 333.328125 442.644531 314.972656 442.644531 293.386719 C 442.644531 284.832031 435.710938 277.898438 427.15625 277.898438 C 418.601562 277.898438 411.667969 284.832031 411.667969 293.386719 C 411.667969 332.160156 439.429688 364.570312 476.109375 371.804688 Z M 491.597656 461.183594 C 363.535156 461.183594 259.359375 357.007812 259.359375 228.945312 C 259.359375 100.882812 363.535156 -3.308594 491.597656 -3.308594 C 619.660156 -3.308594 723.835938 100.882812 723.835938 228.945312 C 723.835938 357.007812 619.660156 461.183594 491.597656 461.183594 " fill-opacity="1" fill-rule="evenodd"/></svg>