<svg xmlns="http://www.w3.org/2000/svg" xmlns:xlink="http://www.w3.org/1999/xlink" width="2000" zoomAndPan="magnify" viewBox="0 0 1500 1499.999933" height="2000" preserveAspectRatio="xMidYMid meet" version="1.0"><defs><clipPath id="11ac99018f"><path d="M 0 91.875 L 648 91.875 L 648 739 L 0 739 Z M 0 91.875 " clip-rule="nonzero"/></clipPath></defs><path fill="#8c52ff" d="M 1192.171875 1039.878906 C 1115.539062 1039.878906 1053.394531 977.746094 1053.394531 901.101562 C 1053.394531 824.457031 1115.539062 762.324219 1192.171875 762.324219 C 1268.832031 762.324219 1330.960938 824.457031 1330.960938 901.101562 C 1330.960938 977.746094 1268.832031 1039.878906 1192.171875 1039.878906 Z M 1192.183594 593.03125 C 1022.042969 593.03125 884.113281 730.957031 884.113281 901.101562 C 884.113281 917.769531 885.8125 934.007812 888.355469 949.96875 C 892.964844 978.855469 901.539062 1006.34375 913.585938 1031.953125 C 913.679688 1032.136719 913.769531 1032.320312 913.863281 1032.515625 C 925.84375 1057.851562 941.078125 1081.292969 959.195312 1102.269531 C 959.652344 1102.804688 960.132812 1103.289062 960.589844 1103.808594 C 968.867188 1113.261719 977.726562 1122.136719 987.074219 1130.503906 C 988.261719 1131.574219 989.421875 1132.683594 990.625 1133.738281 C 1000.703125 1142.472656 1011.234375 1150.65625 1022.394531 1158.042969 C 1022.695312 1158.238281 1023.007812 1158.410156 1023.308594 1158.605469 C 1033.671875 1165.417969 1044.558594 1171.460938 1055.746094 1176.996094 C 1058.144531 1178.199219 1060.546875 1179.359375 1062.988281 1180.496094 C 1102.316406 1198.714844 1145.976562 1209.171875 1192.183594 1209.171875 C 1362.328125 1209.171875 1500.242188 1071.242188 1500.242188 901.101562 C 1500.242188 730.957031 1362.328125 593.03125 1192.183594 593.03125 " fill-opacity="1" fill-rule="nonzero"/><g clip-path="url(#11ac99018f)"><path fill="#8c52ff" d="M 647.296875 415.394531 C 647.296875 236.675781 502.414062 91.792969 323.695312 91.792969 C 300.789062 91.792969 278.46875 94.246094 256.917969 98.773438 L 451.691406 293.535156 L 402.597656 476.703125 L 219.429688 525.78125 L 14.265625 320.621094 C 5.089844 350.601562 0.0898438 382.410156 0.0898438 415.394531 C 0.0898438 594.113281 144.976562 739 323.695312 739 C 502.414062 739 647.296875 594.113281 647.296875 415.394531 " fill-opacity="1" fill-rule="nonzero"/></g><path fill="#8c52ff" d="M 832.6875 968.386719 L 667.765625 1073.933594 C 729.492188 1110.820312 771.339844 1177.625 771.339844 1254.621094 C 771.339844 1267.21875 769.746094 1279.394531 767.617188 1291.390625 L 1013.023438 1219.875 C 920.425781 1167.625 852.851562 1076.320312 832.6875 968.386719 " fill-opacity="1" fill-rule="nonzero"/><path fill="#8c52ff" d="M 560.199219 1319.46875 C 524.394531 1319.46875 495.363281 1290.4375 495.363281 1254.632812 C 495.363281 1218.816406 524.394531 1189.789062 560.199219 1189.789062 C 596 1189.789062 625.03125 1218.816406 625.03125 1254.632812 C 625.03125 1290.4375 596 1319.46875 560.199219 1319.46875 Z M 560.210938 1101.394531 C 475.707031 1101.394531 406.957031 1170.144531 406.957031 1254.621094 C 406.957031 1339.125 475.707031 1407.875 560.210938 1407.875 C 644.6875 1407.875 713.4375 1339.125 713.4375 1254.621094 C 713.4375 1170.144531 644.6875 1101.394531 560.210938 1101.394531 " fill-opacity="1" fill-rule="nonzero"/><path fill="#8c52ff" d="M 430.402344 781.421875 L 415.246094 1101.863281 C 453.125 1065.917969 503.980469 1043.492188 560.210938 1043.492188 C 565.027344 1043.492188 569.53125 1044.589844 574.269531 1044.917969 L 542.8125 727.1875 C 508.953125 751.058594 471.097656 769.53125 430.402344 781.421875 " fill-opacity="1" fill-rule="nonzero"/></svg>