<svg xmlns="http://www.w3.org/2000/svg" xmlns:xlink="http://www.w3.org/1999/xlink" width="4096" zoomAndPan="magnify" viewBox="0 0 3072 3071.999987" height="4096" preserveAspectRatio="xMidYMid meet" version="1.0"><defs><clipPath id="499376f1be"><path d="M 1755 1238 L 2764.949219 1238 L 2764.949219 2248 L 1755 2248 Z M 1755 1238 " clip-rule="nonzero"/></clipPath><clipPath id="3d9f8f735a"><path d="M 307.199219 417.101562 L 1368 417.101562 L 1368 1478 L 307.199219 1478 Z M 307.199219 417.101562 " clip-rule="nonzero"/></clipPath><clipPath id="a4842cec4d"><path d="M 973 2071 L 1477 2071 L 1477 2573.351562 L 973 2573.351562 Z M 973 2071 " clip-rule="nonzero"/></clipPath></defs><g clip-path="url(#499376f1be)"><path fill="#ffffff" d="M 2260.453125 1970.308594 C 2134.898438 1970.308594 2033.082031 1868.511719 2033.082031 1742.9375 C 2033.082031 1617.359375 2134.898438 1515.566406 2260.453125 1515.566406 C 2386.050781 1515.566406 2487.84375 1617.359375 2487.84375 1742.9375 C 2487.84375 1868.511719 2386.050781 1970.308594 2260.453125 1970.308594 Z M 2260.472656 1238.195312 C 1981.714844 1238.195312 1755.730469 1464.175781 1755.730469 1742.9375 C 1755.730469 1770.246094 1758.511719 1796.847656 1762.683594 1823.003906 C 1770.230469 1870.332031 1784.28125 1915.367188 1804.019531 1957.328125 C 1804.167969 1957.625 1804.320312 1957.925781 1804.46875 1958.246094 C 1824.101562 1999.757812 1849.058594 2038.164062 1878.742188 2072.53125 C 1879.488281 2073.40625 1880.28125 2074.199219 1881.03125 2075.054688 C 1894.589844 2090.539062 1909.109375 2105.078125 1924.421875 2118.789062 C 1926.367188 2120.542969 1928.269531 2122.359375 1930.238281 2124.089844 C 1946.746094 2138.398438 1964.003906 2151.808594 1982.289062 2163.910156 C 1982.78125 2164.234375 1983.296875 2164.511719 1983.789062 2164.832031 C 2000.765625 2175.996094 2018.601562 2185.894531 2036.929688 2194.964844 C 2040.867188 2196.929688 2044.800781 2198.835938 2048.800781 2200.695312 C 2113.234375 2230.550781 2184.769531 2247.679688 2260.472656 2247.679688 C 2539.234375 2247.679688 2765.195312 2021.699219 2765.195312 1742.9375 C 2765.195312 1464.175781 2539.234375 1238.195312 2260.472656 1238.195312 " fill-opacity="1" fill-rule="nonzero"/></g><g clip-path="url(#3d9f8f735a)"><path fill="#ffffff" d="M 1367.734375 947.15625 C 1367.734375 654.347656 1130.351562 416.964844 837.542969 416.964844 C 800.007812 416.964844 763.441406 420.984375 728.132812 428.40625 L 1047.25 747.5 L 966.816406 1047.605469 L 666.714844 1128.015625 L 330.574219 791.875 C 315.539062 841 307.351562 893.117188 307.351562 947.15625 C 307.351562 1239.96875 544.730469 1477.347656 837.542969 1477.347656 C 1130.351562 1477.347656 1367.734375 1239.96875 1367.734375 947.15625 " fill-opacity="1" fill-rule="nonzero"/></g><path fill="#ffffff" d="M 1671.472656 1853.179688 L 1401.265625 2026.101562 C 1502.398438 2086.539062 1570.960938 2195.988281 1570.960938 2322.144531 C 1570.960938 2342.78125 1568.351562 2362.734375 1564.863281 2382.386719 L 1966.933594 2265.214844 C 1815.226562 2179.609375 1704.511719 2030.015625 1671.472656 1853.179688 " fill-opacity="1" fill-rule="nonzero"/><g clip-path="url(#a4842cec4d)"><path fill="#ffffff" d="M 1225.027344 2428.386719 C 1166.367188 2428.386719 1118.804688 2380.824219 1118.804688 2322.164062 C 1118.804688 2263.484375 1166.367188 2215.921875 1225.027344 2215.921875 C 1283.6875 2215.921875 1331.25 2263.484375 1331.25 2322.164062 C 1331.25 2380.824219 1283.6875 2428.386719 1225.027344 2428.386719 Z M 1225.046875 2071.097656 C 1086.597656 2071.097656 973.960938 2183.734375 973.960938 2322.144531 C 973.960938 2460.59375 1086.597656 2573.230469 1225.046875 2573.230469 C 1363.457031 2573.230469 1476.09375 2460.59375 1476.09375 2322.144531 C 1476.09375 2183.734375 1363.457031 2071.097656 1225.046875 2071.097656 " fill-opacity="1" fill-rule="nonzero"/></g><path fill="#ffffff" d="M 1012.367188 1546.851562 L 987.539062 2071.867188 C 1049.601562 2012.972656 1132.917969 1976.230469 1225.046875 1976.230469 C 1232.9375 1976.230469 1240.316406 1978.027344 1248.082031 1978.5625 L 1196.542969 1457.996094 C 1141.066406 1497.109375 1079.046875 1527.371094 1012.367188 1546.851562 " fill-opacity="1" fill-rule="nonzero"/></svg>