<svg xmlns="http://www.w3.org/2000/svg" xmlns:xlink="http://www.w3.org/1999/xlink" width="4096" zoomAndPan="magnify" viewBox="0 0 3072 3071.999987" height="4096" preserveAspectRatio="xMidYMid meet" version="1.0"><defs><clipPath id="171622a1e8"><path d="M 307.199219 798 L 1373 798 L 1373 2764.949219 L 307.199219 2764.949219 Z M 307.199219 798 " clip-rule="nonzero"/></clipPath><clipPath id="5c27835dac"><path d="M 1699 798 L 2764.949219 798 L 2764.949219 2764.949219 L 1699 2764.949219 Z M 1699 798 " clip-rule="nonzero"/></clipPath><clipPath id="2e8f3026f7"><path d="M 839 307.199219 L 2233 307.199219 L 2233 1864 L 839 1864 Z M 839 307.199219 " clip-rule="nonzero"/></clipPath></defs><g clip-path="url(#171622a1e8)"><path fill="#ffffff" d="M 716.800781 2570.558594 L 716.800781 2764.796875 L 798.71875 2764.796875 L 798.71875 2559.996094 C 798.71875 2553.117188 796.960938 2546.238281 793.597656 2540.15625 L 425.28125 1877.117188 C 401.601562 1834.558594 389.121094 1786.398438 389.121094 1737.757812 L 389.121094 962.558594 C 389.121094 917.441406 425.917969 880.640625 471.039062 880.640625 C 516.160156 880.640625 552.960938 917.441406 552.960938 962.558594 L 552.960938 1550.398438 C 502.238281 1609.757812 502.238281 1697.917969 555.679688 1756.636719 L 891.359375 2125.757812 L 951.839844 2070.558594 L 616.320312 1701.4375 C 589.601562 1672 590.558594 1626.878906 618.71875 1598.71875 C 633.441406 1584.160156 653.121094 1576.796875 673.441406 1576.957031 C 694.078125 1577.597656 712.960938 1586.238281 726.71875 1601.597656 L 1014.078125 1920.796875 C 1016.960938 1924 1022.558594 1928 1026.398438 1930.238281 C 1189.117188 2023.199219 1290.238281 2197.4375 1290.238281 2384.957031 L 1290.238281 2764.796875 L 1372.160156 2764.796875 L 1372.160156 2355.199219 L 1371.199219 2355.199219 C 1361.117188 2152.160156 1249.117188 1965.917969 1070.558594 1861.277344 L 787.679688 1546.878906 C 758.71875 1514.558594 718.878906 1496.320312 675.519531 1495.039062 C 661.441406 1494.71875 648 1496.800781 634.878906 1499.839844 L 634.878906 962.558594 C 634.878906 872.160156 561.441406 798.71875 471.039062 798.71875 C 380.640625 798.71875 307.199219 872.160156 307.199219 962.558594 L 307.199219 1737.757812 C 307.199219 1800.320312 323.199219 1862.238281 353.601562 1916.796875 L 716.800781 2570.558594 " fill-opacity="1" fill-rule="nonzero"/></g><g clip-path="url(#5c27835dac)"><path fill="#ffffff" d="M 2600.957031 798.71875 C 2510.558594 798.71875 2437.117188 872.160156 2437.117188 962.558594 L 2437.117188 1499.839844 C 2423.996094 1496.800781 2410.398438 1494.71875 2396.476562 1495.039062 C 2353.117188 1496.320312 2313.277344 1514.558594 2284.316406 1546.878906 L 2001.4375 1861.117188 C 1824 1964.160156 1710.878906 2151.199219 1700.796875 2355.199219 L 1699.839844 2355.199219 L 1699.839844 2764.796875 L 1781.757812 2764.796875 L 1781.757812 2384.957031 C 1781.757812 2197.4375 1882.878906 2023.199219 2047.519531 1929.117188 C 2051.359375 1926.878906 2054.878906 1924.160156 2057.917969 1920.796875 L 2345.277344 1601.597656 C 2359.039062 1586.238281 2377.917969 1577.597656 2398.558594 1576.957031 C 2419.679688 1576.957031 2438.558594 1584.160156 2453.277344 1598.71875 C 2481.4375 1626.878906 2482.398438 1672 2455.679688 1701.4375 L 2120.15625 2070.558594 L 2180.636719 2125.757812 L 2516.316406 1756.636719 C 2569.757812 1697.917969 2569.757812 1609.757812 2519.039062 1550.398438 L 2519.039062 962.558594 C 2519.039062 917.441406 2555.835938 880.640625 2600.957031 880.640625 C 2646.078125 880.640625 2682.878906 917.441406 2682.878906 962.558594 L 2682.878906 1733.4375 C 2682.878906 1784.636719 2669.117188 1834.878906 2642.71875 1879.839844 L 2278.398438 2540.15625 C 2275.039062 2546.238281 2273.277344 2553.117188 2273.277344 2559.996094 L 2273.277344 2764.796875 L 2355.199219 2764.796875 L 2355.199219 2570.558594 L 2713.917969 1920.476562 C 2747.199219 1863.839844 2764.796875 1799.199219 2764.796875 1733.4375 L 2764.796875 962.558594 C 2764.796875 872.160156 2691.359375 798.71875 2600.957031 798.71875 " fill-opacity="1" fill-rule="nonzero"/></g><g clip-path="url(#2e8f3026f7)"><path fill="#ffffff" d="M 2150.398438 1419.839844 L 1576.957031 1751.679688 L 1576.957031 1109.4375 L 2150.398438 786.878906 Z M 1536 1038.398438 L 1273.597656 890.878906 L 1845.4375 569.28125 L 2107.839844 716.800781 Z M 1495.039062 1751.679688 L 921.597656 1419.839844 L 921.597656 786.878906 L 1495.039062 1109.4375 Z M 1536 395.199219 L 1761.917969 522.238281 L 1190.078125 843.839844 L 964.160156 716.800781 Z M 2232.316406 1443.519531 L 2232.316406 716.800781 C 2232.316406 713.121094 2231.839844 709.601562 2230.878906 706.078125 C 2230.558594 704.960938 2229.917969 703.839844 2229.4375 702.71875 C 2228.636719 700.480469 2227.996094 698.238281 2226.71875 696.320312 C 2226.078125 695.039062 2225.117188 694.238281 2224.316406 693.121094 C 2223.039062 691.359375 2221.917969 689.441406 2220.316406 687.839844 C 2219.359375 687.039062 2218.238281 686.398438 2217.277344 685.441406 C 2215.519531 684.160156 2213.917969 682.558594 2211.996094 681.441406 C 2211.996094 681.441406 2211.839844 681.441406 2211.679688 681.28125 C 2211.519531 681.28125 2211.519531 681.121094 2211.359375 681.121094 L 1556 312.480469 C 1543.519531 305.441406 1528.480469 305.441406 1516 312.480469 L 860.640625 681.121094 C 860.480469 681.121094 860.480469 681.28125 860.320312 681.28125 C 860.320312 681.441406 860 681.441406 860 681.441406 C 858.078125 682.558594 856.480469 684.160156 854.71875 685.441406 C 853.757812 686.398438 852.640625 687.039062 851.679688 687.839844 C 850.078125 689.441406 848.960938 691.359375 847.679688 693.121094 C 846.878906 694.238281 845.917969 695.039062 845.28125 696.320312 C 844 698.238281 843.359375 700.480469 842.558594 702.71875 C 842.078125 703.839844 841.4375 704.960938 841.121094 706.078125 C 840.160156 709.601562 839.679688 713.121094 839.679688 716.800781 L 839.679688 1443.519531 C 839.679688 1458.238281 847.519531 1471.679688 860.160156 1479.039062 L 1515.519531 1858.078125 C 1515.519531 1858.078125 1515.519531 1858.238281 1515.519531 1858.238281 C 1517.917969 1859.679688 1520.640625 1860.476562 1523.359375 1861.4375 C 1524 1861.597656 1524.640625 1862.078125 1525.4375 1862.398438 C 1528.957031 1863.199219 1532.480469 1863.679688 1536 1863.679688 C 1539.519531 1863.679688 1543.039062 1863.199219 1546.558594 1862.398438 C 1547.359375 1862.078125 1548 1861.597656 1548.640625 1861.4375 C 1551.359375 1860.476562 1554.078125 1859.679688 1556.480469 1858.238281 C 1556.480469 1858.238281 1556.480469 1858.078125 1556.480469 1858.078125 L 2211.839844 1479.039062 C 2224.476562 1471.679688 2232.316406 1458.238281 2232.316406 1443.519531 " fill-opacity="1" fill-rule="nonzero"/></g><path fill="#ffffff" d="M 2068.476562 1331.199219 L 1986.558594 1331.199219 L 1986.558594 1413.117188 L 2068.476562 1413.117188 L 2068.476562 1331.199219 " fill-opacity="1" fill-rule="nonzero"/><path fill="#ffffff" d="M 1904.636719 1413.117188 L 1822.71875 1413.117188 L 1822.71875 1495.039062 L 1904.636719 1495.039062 L 1904.636719 1413.117188 " fill-opacity="1" fill-rule="nonzero"/><path fill="#ffffff" d="M 1740.796875 1495.039062 L 1658.878906 1495.039062 L 1658.878906 1576.957031 L 1740.796875 1576.957031 L 1740.796875 1495.039062 " fill-opacity="1" fill-rule="nonzero"/></svg>