<svg xmlns="http://www.w3.org/2000/svg" xmlns:xlink="http://www.w3.org/1999/xlink" width="2000" zoomAndPan="magnify" viewBox="0 0 1500 1499.999933" height="2000" preserveAspectRatio="xMidYMid meet" version="1.0"><path fill="#8c52ff" d="M 250 1381.445312 L 250 1500 L 300 1500 L 300 1375 C 300 1370.800781 298.925781 1366.601562 296.875 1362.890625 L 72.070312 958.203125 C 57.617188 932.226562 50 902.832031 50 873.144531 L 50 400 C 50 372.460938 72.460938 350 100 350 C 127.539062 350 150 372.460938 150 400 L 150 758.789062 C 119.042969 795.019531 119.042969 848.828125 151.660156 884.667969 L 356.542969 1109.960938 L 393.457031 1076.269531 L 188.671875 850.976562 C 172.363281 833.007812 172.949219 805.46875 190.136719 788.28125 C 199.121094 779.394531 211.132812 774.902344 223.535156 775 C 236.132812 775.390625 247.65625 780.664062 256.054688 790.039062 L 431.445312 984.863281 C 433.203125 986.816406 436.621094 989.257812 438.964844 990.625 C 538.28125 1047.363281 600 1153.710938 600 1268.164062 L 600 1500 L 650 1500 L 650 1250 L 649.414062 1250 C 643.261719 1126.074219 574.902344 1012.402344 465.917969 948.535156 L 293.261719 756.640625 C 275.585938 736.914062 251.269531 725.78125 224.804688 725 C 216.210938 724.804688 208.007812 726.074219 200 727.929688 L 200 400 C 200 344.824219 155.175781 300 100 300 C 44.824219 300 0 344.824219 0 400 L 0 873.144531 C 0 911.328125 9.765625 949.121094 28.320312 982.421875 L 250 1381.445312 " fill-opacity="1" fill-rule="nonzero"/><path fill="#8c52ff" d="M 1400 300 C 1344.824219 300 1300 344.824219 1300 400 L 1300 727.929688 C 1291.992188 726.074219 1283.691406 724.804688 1275.195312 725 C 1248.730469 725.78125 1224.414062 736.914062 1206.738281 756.640625 L 1034.082031 948.4375 C 925.78125 1011.328125 856.738281 1125.488281 850.585938 1250 L 850 1250 L 850 1500 L 900 1500 L 900 1268.164062 C 900 1153.710938 961.71875 1047.363281 1062.207031 989.941406 C 1064.550781 988.574219 1066.699219 986.914062 1068.554688 984.863281 L 1243.945312 790.039062 C 1252.34375 780.664062 1263.867188 775.390625 1276.464844 775 C 1289.355469 775 1300.878906 779.394531 1309.863281 788.28125 C 1327.050781 805.46875 1327.636719 833.007812 1311.328125 850.976562 L 1106.542969 1076.269531 L 1143.457031 1109.960938 L 1348.339844 884.667969 C 1380.957031 848.828125 1380.957031 795.019531 1350 758.789062 L 1350 400 C 1350 372.460938 1372.460938 350 1400 350 C 1427.539062 350 1450 372.460938 1450 400 L 1450 870.507812 C 1450 901.757812 1441.601562 932.421875 1425.488281 959.863281 L 1203.125 1362.890625 C 1201.074219 1366.601562 1200 1370.800781 1200 1375 L 1200 1500 L 1250 1500 L 1250 1381.445312 L 1468.945312 984.667969 C 1489.257812 950.097656 1500 910.644531 1500 870.507812 L 1500 400 C 1500 344.824219 1455.175781 300 1400 300 " fill-opacity="1" fill-rule="nonzero"/><path fill="#8c52ff" d="M 1125 679.101562 L 775 881.640625 L 775 489.648438 L 1125 292.773438 Z M 750 446.289062 L 589.84375 356.25 L 938.867188 159.960938 L 1099.023438 250 Z M 725 881.640625 L 375 679.101562 L 375 292.773438 L 725 489.648438 Z M 750 53.710938 L 887.890625 131.25 L 538.867188 327.539062 L 400.976562 250 Z M 1175 693.554688 L 1175 250 C 1175 247.753906 1174.707031 245.605469 1174.121094 243.457031 C 1173.925781 242.773438 1173.535156 242.089844 1173.242188 241.40625 C 1172.753906 240.039062 1172.363281 238.671875 1171.582031 237.5 C 1171.191406 236.71875 1170.605469 236.230469 1170.117188 235.546875 C 1169.335938 234.472656 1168.652344 233.300781 1167.675781 232.324219 C 1167.089844 231.835938 1166.40625 231.445312 1165.820312 230.859375 C 1164.746094 230.078125 1163.769531 229.101562 1162.597656 228.417969 C 1162.597656 228.417969 1162.5 228.417969 1162.402344 228.320312 C 1162.304688 228.320312 1162.304688 228.222656 1162.207031 228.222656 L 762.207031 3.222656 C 754.589844 -1.074219 745.410156 -1.074219 737.792969 3.222656 L 337.792969 228.222656 C 337.695312 228.222656 337.695312 228.320312 337.597656 228.320312 C 337.597656 228.417969 337.402344 228.417969 337.402344 228.417969 C 336.230469 229.101562 335.253906 230.078125 334.179688 230.859375 C 333.59375 231.445312 332.910156 231.835938 332.324219 232.324219 C 331.347656 233.300781 330.664062 234.472656 329.882812 235.546875 C 329.394531 236.230469 328.808594 236.71875 328.417969 237.5 C 327.636719 238.671875 327.246094 240.039062 326.757812 241.40625 C 326.464844 242.089844 326.074219 242.773438 325.878906 243.457031 C 325.292969 245.605469 325 247.753906 325 250 L 325 693.554688 C 325 702.539062 329.785156 710.742188 337.5 715.234375 L 737.5 946.582031 C 737.5 946.582031 737.5 946.679688 737.5 946.679688 C 738.964844 947.558594 740.625 948.046875 742.285156 948.632812 C 742.675781 948.730469 743.066406 949.023438 743.554688 949.21875 C 745.703125 949.707031 747.851562 950 750 950 C 752.148438 950 754.296875 949.707031 756.445312 949.21875 C 756.933594 949.023438 757.324219 948.730469 757.714844 948.632812 C 759.375 948.046875 761.035156 947.558594 762.5 946.679688 C 762.5 946.679688 762.5 946.582031 762.5 946.582031 L 1162.5 715.234375 C 1170.214844 710.742188 1175 702.539062 1175 693.554688 " fill-opacity="1" fill-rule="nonzero"/><path fill="#8c52ff" d="M 1075 625 L 1025 625 L 1025 675 L 1075 675 L 1075 625 " fill-opacity="1" fill-rule="nonzero"/><path fill="#8c52ff" d="M 975 675 L 925 675 L 925 725 L 975 725 L 975 675 " fill-opacity="1" fill-rule="nonzero"/><path fill="#8c52ff" d="M 875 725 L 825 725 L 825 775 L 875 775 L 875 725 " fill-opacity="1" fill-rule="nonzero"/></svg>