<svg xmlns="http://www.w3.org/2000/svg" xmlns:xlink="http://www.w3.org/1999/xlink" width="4096" zoomAndPan="magnify" viewBox="0 0 3072 3071.999987" height="4096" preserveAspectRatio="xMidYMid meet" version="1.0"><defs><clipPath id="e68570a8bb"><path d="M 623 2799 L 998 2799 L 998 3033.398438 L 623 3033.398438 Z M 623 2799 " clip-rule="nonzero"/></clipPath><clipPath id="a5d3595d31"><path d="M 904 38.648438 L 1232 38.648438 L 1232 367 L 904 367 Z M 904 38.648438 " clip-rule="nonzero"/></clipPath><clipPath id="e084eebe28"><path d="M 389 38.648438 L 718 38.648438 L 718 367 L 389 367 Z M 389 38.648438 " clip-rule="nonzero"/></clipPath><clipPath id="ec319492dd"><path d="M 904 38.648438 L 998 38.648438 L 998 554 L 904 554 Z M 904 38.648438 " clip-rule="nonzero"/></clipPath><clipPath id="0afaa719c7"><path d="M 623 38.648438 L 718 38.648438 L 718 554 L 623 554 Z M 623 38.648438 " clip-rule="nonzero"/></clipPath></defs><path fill="#ffffff" d="M 810.761719 1021.378906 C 1042.992188 1021.378906 1231.890625 832.476562 1231.890625 600.246094 C 1231.890625 574.371094 1210.976562 553.457031 1185.101562 553.457031 C 1159.222656 553.457031 1138.308594 574.371094 1138.308594 600.246094 C 1138.308594 780.820312 991.332031 927.792969 810.761719 927.792969 C 630.191406 927.792969 483.214844 780.820312 483.214844 600.246094 C 483.214844 574.371094 462.300781 553.457031 436.425781 553.457031 C 410.546875 553.457031 389.632812 574.371094 389.632812 600.246094 C 389.632812 832.476562 578.53125 1021.378906 810.761719 1021.378906 Z M 810.761719 1021.378906 " fill-opacity="1" fill-rule="nonzero"/><g clip-path="url(#e68570a8bb)"><path fill="#ffffff" d="M 810.761719 3033.304688 C 913.890625 3033.304688 997.835938 2949.40625 997.835938 2846.273438 C 997.835938 2820.398438 976.921875 2799.484375 951.046875 2799.484375 C 925.167969 2799.484375 904.253906 2820.398438 904.253906 2846.273438 C 904.253906 2897.839844 862.328125 2939.71875 810.761719 2939.71875 C 759.242188 2939.71875 717.363281 2897.792969 717.363281 2846.273438 C 717.363281 2820.398438 696.449219 2799.484375 670.574219 2799.484375 C 644.695312 2799.484375 623.78125 2820.398438 623.78125 2846.273438 C 623.78125 2949.40625 707.679688 3033.304688 810.761719 3033.304688 Z M 810.761719 3033.304688 " fill-opacity="1" fill-rule="nonzero"/></g><path fill="#ffffff" d="M 1185.148438 646.992188 C 1211.023438 646.992188 1231.9375 626.078125 1231.9375 600.199219 L 1231.9375 319.308594 C 1231.9375 293.429688 1211.023438 272.515625 1185.148438 272.515625 C 1159.269531 272.515625 1138.355469 293.429688 1138.355469 319.308594 L 1138.355469 600.199219 C 1138.355469 626.078125 1159.269531 646.992188 1185.148438 646.992188 Z M 1185.148438 646.992188 " fill-opacity="1" fill-rule="nonzero"/><g clip-path="url(#a5d3595d31)"><path fill="#ffffff" d="M 1185.148438 366.097656 C 1211.023438 366.097656 1231.9375 345.183594 1231.9375 319.308594 C 1231.9375 164.566406 1106.113281 38.695312 951.375 38.695312 C 925.496094 38.695312 904.582031 59.609375 904.582031 85.488281 C 904.582031 111.363281 925.496094 132.277344 951.375 132.277344 C 1054.457031 132.277344 1138.355469 216.175781 1138.355469 319.308594 C 1138.355469 345.183594 1159.269531 366.097656 1185.148438 366.097656 Z M 1185.148438 366.097656 " fill-opacity="1" fill-rule="nonzero"/></g><path fill="#ffffff" d="M 436.378906 646.992188 C 462.253906 646.992188 483.171875 626.078125 483.171875 600.199219 L 483.171875 319.449219 C 483.171875 293.570312 462.253906 272.65625 436.378906 272.65625 C 410.5 272.65625 389.585938 293.570312 389.585938 319.449219 L 389.585938 600.199219 C 389.585938 626.078125 410.5 646.992188 436.378906 646.992188 Z M 436.378906 646.992188 " fill-opacity="1" fill-rule="nonzero"/><g clip-path="url(#e084eebe28)"><path fill="#ffffff" d="M 436.378906 366.238281 C 462.253906 366.238281 483.171875 345.324219 483.171875 319.449219 C 483.171875 216.222656 567.113281 132.277344 670.339844 132.277344 C 696.214844 132.277344 717.132812 111.363281 717.132812 85.488281 C 717.132812 59.609375 696.214844 38.695312 670.339844 38.695312 C 515.503906 38.695312 389.585938 164.613281 389.585938 319.449219 C 389.585938 345.324219 410.5 366.238281 436.378906 366.238281 Z M 436.378906 366.238281 " fill-opacity="1" fill-rule="nonzero"/></g><g clip-path="url(#ec319492dd)"><path fill="#ffffff" d="M 951.1875 553.457031 C 977.0625 553.457031 997.976562 532.539062 997.976562 506.664062 L 997.976562 85.488281 C 997.976562 59.609375 977.0625 38.695312 951.1875 38.695312 C 925.308594 38.695312 904.394531 59.609375 904.394531 85.488281 L 904.394531 506.664062 C 904.394531 532.539062 925.308594 553.457031 951.1875 553.457031 Z M 951.1875 553.457031 " fill-opacity="1" fill-rule="nonzero"/></g><g clip-path="url(#0afaa719c7)"><path fill="#ffffff" d="M 670.339844 553.457031 C 696.214844 553.457031 717.132812 532.539062 717.132812 506.664062 L 717.132812 85.488281 C 717.132812 59.609375 696.214844 38.695312 670.339844 38.695312 C 644.460938 38.695312 623.546875 59.609375 623.546875 85.488281 L 623.546875 506.664062 C 623.546875 532.539062 644.460938 553.457031 670.339844 553.457031 Z M 670.339844 553.457031 " fill-opacity="1" fill-rule="nonzero"/></g><path fill="#ffffff" d="M 670.339844 553.457031 L 951.1875 553.457031 C 977.0625 553.457031 997.976562 532.539062 997.976562 506.664062 C 997.976562 480.785156 977.0625 459.871094 951.1875 459.871094 L 670.339844 459.871094 C 644.460938 459.871094 623.546875 480.785156 623.546875 506.664062 C 623.546875 532.539062 644.460938 553.457031 670.339844 553.457031 Z M 670.339844 553.457031 " fill-opacity="1" fill-rule="nonzero"/><path fill="#ffffff" d="M 670.574219 1536.09375 C 696.449219 1536.09375 717.363281 1515.175781 717.363281 1489.300781 L 717.363281 947.351562 C 717.363281 921.476562 696.449219 900.558594 670.574219 900.558594 C 644.695312 900.558594 623.78125 921.476562 623.78125 947.351562 L 623.78125 1489.300781 C 623.78125 1515.175781 644.695312 1536.09375 670.574219 1536.09375 Z M 670.574219 1536.09375 " fill-opacity="1" fill-rule="nonzero"/><path fill="#ffffff" d="M 951.046875 1536.09375 C 976.921875 1536.09375 997.835938 1515.175781 997.835938 1489.300781 L 997.835938 947.351562 C 997.835938 921.476562 976.921875 900.558594 951.046875 900.558594 C 925.167969 900.558594 904.253906 921.476562 904.253906 947.351562 L 904.253906 1489.300781 C 904.253906 1515.175781 925.167969 1536.09375 951.046875 1536.09375 Z M 951.046875 1536.09375 " fill-opacity="1" fill-rule="nonzero"/><path fill="#ffffff" d="M 622.46875 1536 L 809.734375 1535.90625 C 835.609375 1535.90625 856.523438 1514.941406 856.523438 1489.113281 C 856.523438 1463.238281 835.5625 1442.320312 809.734375 1442.320312 L 622.46875 1442.414062 C 596.59375 1442.414062 575.679688 1463.378906 575.679688 1489.207031 C 575.679688 1515.082031 596.640625 1536 622.46875 1536 Z M 622.46875 1536 " fill-opacity="1" fill-rule="nonzero"/><path fill="#ffffff" d="M 622.46875 1816.472656 C 648.347656 1816.472656 669.261719 1795.554688 669.261719 1769.679688 C 669.261719 1743.804688 648.347656 1722.886719 622.46875 1722.886719 C 570.859375 1722.886719 528.886719 1680.867188 528.886719 1629.207031 C 528.886719 1577.597656 570.859375 1535.625 622.46875 1535.625 C 648.347656 1535.625 669.261719 1514.707031 669.261719 1488.832031 C 669.261719 1462.957031 648.347656 1442.039062 622.46875 1442.039062 C 519.246094 1442.039062 435.300781 1525.984375 435.300781 1629.207031 C 435.300781 1732.480469 519.246094 1816.472656 622.46875 1816.472656 Z M 622.46875 1816.472656 " fill-opacity="1" fill-rule="nonzero"/><path fill="#ffffff" d="M 622.46875 2097.132812 C 648.347656 2097.132812 669.261719 2076.214844 669.261719 2050.339844 C 669.261719 2024.460938 648.347656 2003.546875 622.46875 2003.546875 C 570.859375 2003.546875 528.886719 1961.574219 528.886719 1909.960938 C 528.886719 1858.304688 570.859375 1816.285156 622.46875 1816.285156 C 648.347656 1816.285156 669.261719 1795.367188 669.261719 1769.492188 C 669.261719 1743.617188 648.347656 1722.699219 622.46875 1722.699219 C 519.246094 1722.699219 435.300781 1806.691406 435.300781 1909.960938 C 435.300781 2013.1875 519.246094 2097.132812 622.46875 2097.132812 Z M 622.46875 2097.132812 " fill-opacity="1" fill-rule="nonzero"/><path fill="#ffffff" d="M 622.46875 2377.882812 C 648.347656 2377.882812 669.261719 2356.96875 669.261719 2331.09375 C 669.261719 2305.214844 648.347656 2284.300781 622.46875 2284.300781 C 570.859375 2284.300781 528.886719 2242.28125 528.886719 2190.621094 C 528.886719 2139.011719 570.859375 2097.039062 622.46875 2097.039062 C 648.347656 2097.039062 669.261719 2076.121094 669.261719 2050.246094 C 669.261719 2024.371094 648.347656 2003.453125 622.46875 2003.453125 C 519.246094 2003.453125 435.300781 2087.398438 435.300781 2190.621094 C 435.300781 2293.890625 519.246094 2377.882812 622.46875 2377.882812 Z M 622.46875 2377.882812 " fill-opacity="1" fill-rule="nonzero"/><path fill="#ffffff" d="M 622.46875 2658.917969 C 648.347656 2658.917969 669.261719 2638.003906 669.261719 2612.125 C 669.261719 2586.25 648.347656 2565.335938 622.46875 2565.335938 C 570.859375 2565.335938 528.886719 2523.363281 528.886719 2471.75 C 528.886719 2420.089844 570.859375 2378.070312 622.46875 2378.070312 C 648.347656 2378.070312 669.261719 2357.15625 669.261719 2331.28125 C 669.261719 2305.402344 648.347656 2284.488281 622.46875 2284.488281 C 519.246094 2284.488281 435.300781 2368.480469 435.300781 2471.75 C 435.300781 2574.972656 519.246094 2658.917969 622.46875 2658.917969 Z M 622.46875 2658.917969 " fill-opacity="1" fill-rule="nonzero"/><path fill="#ffffff" d="M 810.527344 2658.917969 C 913.753906 2658.917969 997.699219 2574.972656 997.699219 2471.75 C 997.699219 2368.480469 913.753906 2284.488281 810.527344 2284.488281 C 784.652344 2284.488281 763.734375 2305.402344 763.734375 2331.28125 C 763.734375 2357.15625 784.652344 2378.070312 810.527344 2378.070312 C 862.140625 2378.070312 904.113281 2420.089844 904.113281 2471.75 C 904.113281 2523.363281 862.140625 2565.335938 810.527344 2565.335938 C 784.652344 2565.335938 763.734375 2586.25 763.734375 2612.125 C 763.734375 2638.003906 784.652344 2658.917969 810.527344 2658.917969 Z M 810.527344 2658.917969 " fill-opacity="1" fill-rule="nonzero"/><path fill="#ffffff" d="M 810.527344 2378.257812 C 913.753906 2378.257812 997.699219 2294.265625 997.699219 2190.996094 C 997.699219 2087.773438 913.753906 2003.828125 810.527344 2003.828125 C 784.652344 2003.828125 763.734375 2024.742188 763.734375 2050.621094 C 763.734375 2076.496094 784.652344 2097.410156 810.527344 2097.410156 C 862.140625 2097.410156 904.113281 2139.382812 904.113281 2190.996094 C 904.113281 2242.65625 862.140625 2284.675781 810.527344 2284.675781 C 784.652344 2284.675781 763.734375 2305.589844 763.734375 2331.464844 C 763.734375 2357.34375 784.652344 2378.257812 810.527344 2378.257812 Z M 810.527344 2378.257812 " fill-opacity="1" fill-rule="nonzero"/><path fill="#ffffff" d="M 810.527344 2097.597656 C 913.800781 2097.597656 997.789062 2013.652344 997.789062 1910.429688 C 997.789062 1884.554688 976.875 1863.636719 951 1863.636719 C 925.121094 1863.636719 904.207031 1884.554688 904.207031 1910.429688 C 904.207031 1962.042969 862.1875 2004.015625 810.527344 2004.015625 C 758.917969 2004.015625 716.945312 1962.042969 716.945312 1910.429688 C 716.945312 1884.554688 696.027344 1863.636719 670.152344 1863.636719 C 644.277344 1863.636719 623.359375 1884.554688 623.359375 1910.429688 C 623.359375 2013.652344 707.304688 2097.597656 810.527344 2097.597656 Z M 810.527344 2097.597656 " fill-opacity="1" fill-rule="nonzero"/><path fill="#ffffff" d="M 622.5625 2097.597656 L 809.78125 2097.410156 C 835.65625 2097.363281 856.570312 2076.449219 856.523438 2050.574219 C 856.476562 2024.742188 835.5625 2003.828125 809.734375 2003.828125 L 809.6875 2003.828125 L 622.515625 2004.015625 C 596.640625 2004.0625 575.726562 2024.976562 575.773438 2050.855469 C 575.773438 2076.683594 596.734375 2097.597656 622.5625 2097.597656 Z M 622.5625 2097.597656 " fill-opacity="1" fill-rule="nonzero"/><path fill="#ffffff" d="M 622.5625 2378.257812 L 809.78125 2378.164062 C 835.609375 2378.164062 856.523438 2357.203125 856.523438 2331.375 C 856.523438 2305.496094 835.5625 2284.582031 809.734375 2284.582031 C 809.734375 2284.582031 809.734375 2284.582031 809.6875 2284.582031 L 622.515625 2284.675781 C 596.6875 2284.675781 575.773438 2305.636719 575.773438 2331.464844 C 575.773438 2357.34375 596.734375 2378.257812 622.5625 2378.257812 Z M 622.5625 2378.257812 " fill-opacity="1" fill-rule="nonzero"/><path fill="#ffffff" d="M 809.734375 1535.90625 L 1184.585938 1535.90625 C 1210.460938 1535.90625 1231.378906 1514.988281 1231.378906 1489.113281 C 1231.378906 1463.238281 1210.460938 1442.320312 1184.585938 1442.320312 L 809.6875 1442.320312 C 783.808594 1442.320312 762.894531 1463.238281 762.894531 1489.113281 C 762.894531 1514.988281 783.855469 1535.90625 809.734375 1535.90625 Z M 809.734375 1535.90625 " fill-opacity="1" fill-rule="nonzero"/><path fill="#ffffff" d="M 622.46875 2659.574219 L 1184.585938 2659.574219 C 1210.460938 2659.574219 1231.378906 2638.65625 1231.378906 2612.78125 C 1231.378906 2586.90625 1210.460938 2565.988281 1184.585938 2565.988281 L 622.421875 2565.988281 C 596.546875 2565.988281 575.632812 2586.90625 575.632812 2612.78125 C 575.632812 2638.65625 596.59375 2659.574219 622.46875 2659.574219 Z M 622.46875 2659.574219 " fill-opacity="1" fill-rule="nonzero"/><path fill="#ffffff" d="M 1184.585938 2659.574219 C 1443.113281 2659.574219 1674.171875 2495.707031 1759.476562 2251.78125 C 1767.992188 2227.402344 1755.125 2200.683594 1730.746094 2192.167969 C 1706.320312 2183.648438 1679.648438 2196.566406 1671.132812 2220.898438 C 1598.976562 2427.296875 1403.433594 2565.988281 1184.632812 2565.988281 C 1158.757812 2565.988281 1137.839844 2586.90625 1137.839844 2612.78125 C 1137.839844 2638.65625 1158.710938 2659.574219 1184.585938 2659.574219 Z M 1184.585938 2659.574219 " fill-opacity="1" fill-rule="nonzero"/><path fill="#ffffff" d="M 1714.835938 1910.898438 C 1719.980469 1910.898438 1725.269531 1910.007812 1730.371094 1908.230469 C 1754.75 1899.621094 1767.570312 1872.902344 1758.960938 1848.570312 C 1673.378906 1605.4375 1442.503906 1442.039062 1184.585938 1442.039062 C 1158.710938 1442.039062 1137.792969 1462.957031 1137.792969 1488.832031 C 1137.792969 1514.707031 1158.710938 1535.625 1184.585938 1535.625 C 1402.917969 1535.625 1598.277344 1673.847656 1670.710938 1879.640625 C 1677.449219 1898.871094 1695.558594 1910.898438 1714.835938 1910.898438 Z M 1714.835938 1910.898438 " fill-opacity="1" fill-rule="nonzero"/><path fill="#ffffff" d="M 670.058594 1957.222656 C 695.933594 1957.222656 716.851562 1936.304688 716.851562 1910.429688 L 716.851562 1488.832031 C 716.851562 1462.957031 695.933594 1442.039062 670.058594 1442.039062 C 644.183594 1442.039062 623.265625 1462.957031 623.265625 1488.832031 L 623.265625 1910.429688 C 623.265625 1936.304688 644.183594 1957.222656 670.058594 1957.222656 Z M 670.058594 1957.222656 " fill-opacity="1" fill-rule="nonzero"/><path fill="#ffffff" d="M 951 1816.753906 L 1184.585938 1816.753906 C 1210.460938 1816.753906 1231.378906 1795.835938 1231.378906 1769.960938 C 1231.378906 1744.082031 1210.460938 1723.167969 1184.585938 1723.167969 L 951 1723.167969 C 925.121094 1723.167969 904.207031 1744.082031 904.207031 1769.960938 C 904.207031 1795.835938 925.121094 1816.753906 951 1816.753906 Z M 951 1816.753906 " fill-opacity="1" fill-rule="nonzero"/><path fill="#ffffff" d="M 622.46875 1816.753906 L 669.402344 1816.753906 C 695.277344 1816.753906 716.195312 1795.835938 716.195312 1769.960938 C 716.195312 1744.082031 695.277344 1723.167969 669.402344 1723.167969 L 622.421875 1723.167969 C 596.546875 1723.167969 575.632812 1744.082031 575.632812 1769.960938 C 575.632812 1795.835938 596.59375 1816.753906 622.46875 1816.753906 Z M 622.46875 1816.753906 " fill-opacity="1" fill-rule="nonzero"/><path fill="#ffffff" d="M 951 1957.222656 C 976.875 1957.222656 997.792969 1936.304688 997.792969 1910.429688 L 997.792969 1769.960938 C 997.792969 1744.082031 976.875 1723.167969 951 1723.167969 C 925.121094 1723.167969 904.207031 1744.082031 904.207031 1769.960938 L 904.207031 1910.429688 C 904.207031 1936.304688 925.121094 1957.222656 951 1957.222656 Z M 951 1957.222656 " fill-opacity="1" fill-rule="nonzero"/><path fill="#ffffff" d="M 1641.652344 1770.523438 L 1886.140625 1770.523438 C 1912.019531 1770.523438 1932.933594 1749.605469 1932.933594 1723.730469 C 1932.933594 1697.851562 1912.019531 1676.9375 1886.140625 1676.9375 L 1641.652344 1676.9375 C 1615.777344 1676.9375 1594.859375 1697.851562 1594.859375 1723.730469 C 1594.859375 1749.605469 1615.777344 1770.523438 1641.652344 1770.523438 Z M 1641.652344 1770.523438 " fill-opacity="1" fill-rule="nonzero"/><path fill="#ffffff" d="M 1886.09375 2425.707031 C 1911.925781 2425.707031 1932.886719 2404.789062 1932.886719 2378.914062 C 1932.886719 2353.085938 1911.972656 2332.121094 1886.09375 2332.121094 L 1640.902344 2332.027344 C 1615.074219 2332.027344 1594.109375 2352.945312 1594.109375 2378.820312 C 1594.109375 2404.648438 1615.027344 2425.613281 1640.902344 2425.613281 Z M 1886.09375 2425.707031 " fill-opacity="1" fill-rule="nonzero"/><path fill="#ffffff" d="M 1886.84375 2519.289062 C 1912.71875 2519.289062 1933.636719 2498.375 1933.636719 2472.5 L 1933.636719 1630.144531 C 1933.636719 1604.269531 1912.71875 1583.351562 1886.84375 1583.351562 C 1860.96875 1583.351562 1840.050781 1604.269531 1840.050781 1630.144531 L 1840.050781 2472.5 C 1840.050781 2498.328125 1860.96875 2519.289062 1886.84375 2519.289062 Z M 1886.84375 2519.289062 " fill-opacity="1" fill-rule="nonzero"/><path fill="#ffffff" d="M 1886.84375 2519.289062 L 2074.105469 2519.289062 C 2099.980469 2519.289062 2120.898438 2498.375 2120.898438 2472.5 C 2120.898438 2446.621094 2099.980469 2425.707031 2074.105469 2425.707031 L 1886.84375 2425.707031 C 1860.96875 2425.707031 1840.050781 2446.621094 1840.050781 2472.5 C 1840.050781 2498.375 1860.96875 2519.289062 1886.84375 2519.289062 Z M 1886.84375 2519.289062 " fill-opacity="1" fill-rule="nonzero"/><path fill="#ffffff" d="M 1886.84375 1676.9375 L 2074.105469 1676.9375 C 2099.980469 1676.9375 2120.898438 1656.019531 2120.898438 1630.144531 C 2120.898438 1604.269531 2099.980469 1583.351562 2074.105469 1583.351562 L 1886.84375 1583.351562 C 1860.96875 1583.351562 1840.050781 1604.269531 1840.050781 1630.144531 C 1840.050781 1656.019531 1860.96875 1676.9375 1886.84375 1676.9375 Z M 1886.84375 1676.9375 " fill-opacity="1" fill-rule="nonzero"/><path fill="#ffffff" d="M 2074.105469 2612.875 C 2099.980469 2612.875 2120.898438 2591.960938 2120.898438 2566.082031 L 2120.898438 1489.769531 C 2120.898438 1463.890625 2099.980469 1442.976562 2074.105469 1442.976562 C 2048.230469 1442.976562 2027.3125 1463.890625 2027.3125 1489.769531 L 2027.3125 2566.082031 C 2027.3125 2591.914062 2048.230469 2612.875 2074.105469 2612.875 Z M 2074.105469 2612.875 " fill-opacity="1" fill-rule="nonzero"/><path fill="#ffffff" d="M 2074.105469 1536.558594 L 2635.613281 1536.558594 C 2661.488281 1536.558594 2682.40625 1515.644531 2682.40625 1489.769531 C 2682.40625 1463.890625 2661.488281 1442.976562 2635.613281 1442.976562 L 2074.105469 1442.976562 C 2048.230469 1442.976562 2027.3125 1463.890625 2027.3125 1489.769531 C 2027.3125 1515.644531 2048.230469 1536.558594 2074.105469 1536.558594 Z M 2074.105469 1536.558594 " fill-opacity="1" fill-rule="nonzero"/><path fill="#ffffff" d="M 2074.105469 2612.875 L 2635.613281 2612.875 C 2661.488281 2612.875 2682.40625 2591.960938 2682.40625 2566.082031 C 2682.40625 2540.207031 2661.488281 2519.289062 2635.613281 2519.289062 L 2074.105469 2519.289062 C 2048.230469 2519.289062 2027.3125 2540.207031 2027.3125 2566.082031 C 2027.3125 2591.960938 2048.230469 2612.875 2074.105469 2612.875 Z M 2074.105469 2612.875 " fill-opacity="1" fill-rule="nonzero"/><path fill="#ffffff" d="M 670.574219 2893.066406 C 696.449219 2893.066406 717.363281 2872.152344 717.363281 2846.273438 L 717.363281 2612.78125 C 717.363281 2586.90625 696.449219 2565.988281 670.574219 2565.988281 C 644.695312 2565.988281 623.78125 2586.90625 623.78125 2612.78125 L 623.78125 2846.273438 C 623.78125 2872.152344 644.695312 2893.066406 670.574219 2893.066406 Z M 670.574219 2893.066406 " fill-opacity="1" fill-rule="nonzero"/><path fill="#ffffff" d="M 951.046875 2893.066406 C 976.921875 2893.066406 997.835938 2872.152344 997.835938 2846.273438 L 997.835938 2612.78125 C 997.835938 2586.90625 976.921875 2565.988281 951.046875 2565.988281 C 925.167969 2565.988281 904.253906 2586.90625 904.253906 2612.78125 L 904.253906 2846.273438 C 904.253906 2872.152344 925.167969 2893.066406 951.046875 2893.066406 Z M 951.046875 2893.066406 " fill-opacity="1" fill-rule="nonzero"/></svg>