<svg xmlns="http://www.w3.org/2000/svg" xmlns:xlink="http://www.w3.org/1999/xlink" width="4096" zoomAndPan="magnify" viewBox="0 0 3072 3071.999987" height="4096" preserveAspectRatio="xMidYMid meet" version="1.0"><path fill="#000000" d="M 2976 1368 L 2918.398438 1368 C 2911.199219 1298.398438 2896.800781 1228.800781 2877.601562 1164 L 2930.398438 1142.398438 C 2978.398438 1123.199219 3002.398438 1065.601562 2983.199219 1017.601562 L 2928 885.601562 C 2918.398438 861.601562 2899.199219 842.398438 2875.199219 832.800781 C 2851.199219 823.199219 2824.800781 823.199219 2800.800781 832.800781 L 2745.601562 854.398438 C 2712 794.398438 2673.601562 736.800781 2630.398438 681.601562 L 2671.199219 640.800781 C 2690.398438 621.601562 2700 597.601562 2700 573.601562 C 2700 549.601562 2690.398438 523.199219 2671.199219 506.398438 L 2570.398438 405.601562 C 2551.199219 386.398438 2527.199219 376.800781 2503.199219 376.800781 C 2479.199219 376.800781 2452.800781 386.398438 2436 405.601562 L 2395.199219 446.398438 C 2340 403.199219 2282.398438 364.800781 2222.398438 331.199219 L 2244 278.398438 C 2253.601562 254.398438 2253.601562 228 2244 204 C 2234.398438 180 2215.199219 160.800781 2191.199219 151.199219 L 2059.199219 96 C 2011.199219 76.800781 1953.601562 98.398438 1934.398438 148.800781 L 1910.398438 201.601562 C 1843.199219 182.398438 1776 170.398438 1706.398438 160.800781 L 1706.398438 96 C 1706.398438 43.199219 1663.199219 0 1610.398438 0 L 1466.398438 0 C 1413.601562 0 1370.398438 43.199219 1370.398438 96 L 1370.398438 153.601562 C 1300.800781 160.800781 1231.199219 175.199219 1166.398438 194.398438 L 1144.800781 141.601562 C 1125.601562 93.601562 1068 69.601562 1020 88.800781 L 880.800781 144 C 856.800781 153.601562 837.601562 172.800781 828 196.800781 C 818.398438 220.800781 818.398438 247.199219 828 271.199219 L 849.601562 326.398438 C 789.601562 360 732 398.398438 676.800781 441.601562 L 636 400.800781 C 616.800781 381.601562 592.800781 372 568.800781 372 C 544.800781 372 518.398438 381.601562 501.601562 400.800781 L 400.800781 501.601562 C 381.601562 520.800781 372 544.800781 372 568.800781 C 372 592.800781 381.601562 619.199219 400.800781 636 L 441.601562 676.800781 C 398.398438 732 360 789.601562 326.398438 849.601562 L 273.601562 828 C 249.601562 818.398438 223.199219 818.398438 199.199219 828 C 175.199219 837.601562 156 856.800781 146.398438 880.800781 L 91.199219 1012.800781 C 72 1060.800781 93.601562 1118.398438 144 1137.601562 L 196.800781 1161.601562 C 177.601562 1228.800781 165.601562 1296 156 1365.601562 L 96 1365.601562 C 43.199219 1365.601562 0 1408.800781 0 1461.601562 L 0 1605.601562 C 0 1658.398438 43.199219 1701.601562 96 1701.601562 L 153.601562 1701.601562 C 160.800781 1771.199219 175.199219 1840.800781 194.398438 1905.601562 L 141.601562 1927.199219 C 93.601562 1946.398438 69.601562 2004 88.800781 2052 L 144 2191.199219 C 153.601562 2215.199219 172.800781 2234.398438 196.800781 2244 C 220.800781 2253.601562 247.199219 2253.601562 271.199219 2244 L 326.398438 2222.398438 C 360 2282.398438 398.398438 2340 441.601562 2395.199219 L 400.800781 2436 C 362.398438 2474.398438 362.398438 2534.398438 400.800781 2572.800781 L 501.601562 2673.601562 C 520.800781 2692.800781 544.800781 2702.398438 568.800781 2702.398438 C 592.800781 2702.398438 619.199219 2692.800781 636 2673.601562 L 676.800781 2632.800781 C 732 2676 789.601562 2714.398438 849.601562 2748 L 828 2800.800781 C 818.398438 2824.800781 818.398438 2851.199219 828 2875.199219 C 837.601562 2899.199219 856.800781 2918.398438 880.800781 2928 L 1012.800781 2983.199219 C 1060.800781 3002.398438 1118.398438 2980.800781 1137.601562 2930.398438 L 1161.601562 2877.601562 C 1228.800781 2896.800781 1296 2908.800781 1365.601562 2918.398438 L 1365.601562 2976 C 1365.601562 3028.800781 1408.800781 3072 1461.601562 3072 L 1605.601562 3072 C 1658.398438 3072 1701.601562 3028.800781 1701.601562 2976 L 1701.601562 2918.398438 C 1771.199219 2911.199219 1840.800781 2896.800781 1905.601562 2877.601562 L 1927.199219 2930.398438 C 1946.398438 2978.398438 2004 3002.398438 2052 2983.199219 L 2184 2928 C 2208 2918.398438 2227.199219 2899.199219 2236.800781 2875.199219 C 2246.398438 2851.199219 2246.398438 2824.800781 2236.800781 2800.800781 L 2215.199219 2745.601562 C 2275.199219 2712 2332.800781 2673.601562 2388 2630.398438 L 2428.800781 2671.199219 C 2448 2690.398438 2472 2700 2496 2700 C 2520 2700 2546.398438 2690.398438 2563.199219 2671.199219 L 2664 2570.398438 C 2702.398438 2532 2702.398438 2472 2664 2433.601562 L 2623.199219 2392.800781 C 2666.398438 2337.601562 2704.800781 2280 2738.398438 2220 L 2791.199219 2241.601562 C 2815.199219 2251.199219 2841.597656 2251.199219 2865.597656 2241.601562 C 2889.597656 2232 2908.800781 2212.800781 2918.398438 2188.800781 L 2973.597656 2056.800781 C 2992.800781 2008.800781 2971.199219 1951.199219 2920.800781 1932 L 2868 1908 C 2887.199219 1840.800781 2899.199219 1773.601562 2908.800781 1704 L 2966.398438 1704 C 3019.199219 1704 3062.398438 1660.800781 3062.398438 1608 L 3062.398438 1464 C 3072 1411.199219 3028.800781 1368 2976 1368 Z M 2976 1608 L 2918.398438 1608 C 2870.398438 1608 2829.601562 1644 2822.398438 1694.398438 C 2815.199219 1759.199219 2803.199219 1824 2784 1884 C 2772 1932 2796 1980 2839.199219 1999.199219 L 2892 2020.800781 L 2836.800781 2152.800781 L 2784 2131.199219 C 2738.398438 2112 2688 2131.199219 2664 2174.398438 C 2632.800781 2229.601562 2596.800781 2284.800781 2556 2335.199219 C 2524.800781 2373.601562 2529.601562 2428.800781 2563.199219 2462.398438 L 2604 2503.199219 L 2503.199219 2604 L 2462.398438 2563.199219 C 2428.800781 2529.601562 2373.601562 2524.800781 2335.199219 2556 C 2284.800781 2596.800781 2229.601562 2632.800781 2174.398438 2664 C 2131.199219 2688 2114.398438 2740.800781 2131.199219 2784 L 2152.800781 2836.800781 L 2020.800781 2892 L 1999.199219 2839.199219 C 1980 2793.601562 1932 2769.601562 1884 2784 C 1821.601562 2800.800781 1759.199219 2812.800781 1694.398438 2822.398438 C 1646.398438 2827.199219 1608 2868 1608 2918.398438 L 1608 2976 L 1464 2976 L 1464 2918.398438 C 1464 2870.398438 1428 2829.601562 1377.601562 2822.398438 C 1312.800781 2815.199219 1248 2803.199219 1188 2784 C 1178.398438 2781.601562 1171.199219 2781.601562 1161.601562 2781.601562 C 1123.199219 2781.601562 1087.199219 2803.199219 1072.800781 2841.601562 L 1051.199219 2894.398438 L 919.199219 2839.199219 L 940.800781 2786.398438 C 960 2740.800781 940.800781 2690.398438 897.601562 2666.398438 C 842.398438 2635.199219 787.199219 2599.199219 736.800781 2558.398438 C 698.398438 2527.199219 643.199219 2532 609.601562 2565.601562 L 568.800781 2606.398438 L 468 2505.601562 L 508.800781 2464.800781 C 542.398438 2431.199219 547.199219 2376 516 2337.601562 C 475.199219 2287.199219 439.199219 2232 408 2176.800781 C 384 2133.601562 331.199219 2116.800781 288 2133.601562 L 235.199219 2155.199219 L 180 2023.199219 L 232.800781 2001.601562 C 278.398438 1982.398438 302.398438 1934.398438 288 1886.398438 C 271.199219 1824 259.199219 1761.601562 249.601562 1696.800781 C 244.800781 1648.800781 204 1610.398438 153.601562 1610.398438 L 96 1610.398438 L 96 1466.398438 L 153.601562 1466.398438 C 201.601562 1466.398438 242.398438 1430.398438 249.601562 1380 C 256.800781 1315.199219 268.800781 1250.398438 288 1190.398438 C 300 1142.398438 276 1094.398438 232.800781 1075.199219 L 180 1053.601562 L 235.199219 921.601562 L 288 943.199219 C 333.601562 962.398438 384 943.199219 408 900 C 439.199219 844.800781 475.199219 789.601562 516 739.199219 C 547.199219 700.800781 542.398438 645.601562 508.800781 612 L 468 571.199219 L 568.800781 470.398438 L 609.601562 511.199219 C 643.199219 544.800781 698.398438 549.601562 736.800781 518.398438 C 787.199219 477.601562 842.398438 441.601562 897.601562 410.398438 C 940.800781 386.398438 957.601562 333.601562 940.800781 290.398438 L 919.199219 237.601562 L 1051.199219 182.398438 L 1072.800781 235.199219 C 1092 280.800781 1140 304.800781 1188 290.398438 C 1250.398438 273.601562 1312.800781 261.601562 1377.601562 252 C 1425.601562 247.199219 1464 206.398438 1464 156 L 1464 96 L 1608 96 L 1608 153.601562 C 1608 201.601562 1644 242.398438 1694.398438 249.601562 C 1759.199219 256.800781 1824 268.800781 1884 288 C 1932 300 1980 276 1999.199219 232.800781 L 2020.800781 180 L 2152.800781 235.199219 L 2131.199219 288 C 2112 333.601562 2131.199219 384 2174.398438 408 C 2229.601562 439.199219 2284.800781 475.199219 2335.199219 516 C 2373.601562 547.199219 2428.800781 542.398438 2462.398438 508.800781 L 2503.199219 468 L 2604 568.800781 L 2563.199219 609.601562 C 2529.601562 643.199219 2524.800781 698.398438 2556 736.800781 C 2596.800781 787.199219 2632.800781 842.398438 2664 897.601562 C 2688 940.800781 2740.800781 957.601562 2784 940.800781 L 2836.800781 919.199219 L 2892 1051.199219 L 2839.199219 1072.800781 C 2793.601562 1092 2769.601562 1140 2784 1188 C 2800.800781 1250.398438 2812.800781 1312.800781 2822.398438 1377.601562 C 2827.199219 1425.601562 2868 1464 2918.398438 1464 L 2976 1464 Z M 2976 1608 " fill-opacity="1" fill-rule="nonzero"/><path fill="#000000" d="M 1536 432 C 926.398438 432 432 926.398438 432 1536 C 432 2100 854.398438 2572.800781 1413.601562 2632.800781 C 1428 2635.199219 1440 2630.398438 1452 2620.800781 C 1464 2611.199219 1468.800781 2599.199219 1468.800781 2584.800781 L 1468.800781 2316 C 1468.800781 2296.800781 1456.800781 2277.601562 1437.601562 2270.398438 C 1329.601562 2227.199219 1255.199219 2116.800781 1248 1994.398438 C 1243.199219 1886.398438 1288.800781 1783.199219 1370.398438 1720.800781 L 1370.398438 1992 C 1370.398438 2032.800781 1404 2066.398438 1444.800781 2066.398438 L 1624.800781 2066.398438 C 1665.601562 2066.398438 1699.199219 2032.800781 1699.199219 1992 L 1699.199219 1723.199219 C 1776 1780.800781 1821.601562 1876.800781 1821.601562 1980 C 1821.601562 2109.601562 1744.800781 2227.199219 1632 2272.800781 C 1612.800781 2280 1600.800781 2296.800781 1600.800781 2318.398438 L 1600.800781 2587.199219 C 1600.800781 2601.601562 1605.597656 2613.601562 1617.597656 2623.199219 C 1627.199219 2630.398438 1636.800781 2635.199219 1648.800781 2635.199219 C 1651.199219 2635.199219 1651.199219 2635.199219 1653.597656 2635.199219 C 2217.601562 2572.800781 2640 2100 2640 1536 C 2640 926.398438 2145.601562 432 1536 432 Z M 1701.601562 2529.601562 L 1701.601562 2347.199219 C 1833.601562 2280 1920 2136 1920 1977.601562 C 1920 1826.398438 1840.800781 1687.199219 1713.601562 1615.199219 C 1692 1603.199219 1663.199219 1603.199219 1641.601562 1617.601562 C 1620 1632 1605.601562 1656 1605.601562 1682.398438 L 1605.601562 1970.398438 L 1468.800781 1970.398438 L 1468.800781 1682.398438 C 1468.800781 1656 1454.398438 1629.601562 1430.398438 1617.601562 C 1408.800781 1605.601562 1382.398438 1603.199219 1358.398438 1617.601562 C 1224 1692 1144.800781 1840.800781 1152 2001.601562 C 1159.199219 2150.398438 1243.199219 2282.398438 1370.398438 2347.199219 L 1370.398438 2532 C 888 2450.398438 528 2032.800781 528 1536 C 528 979.199219 979.199219 528 1536 528 C 2092.800781 528 2544 979.199219 2544 1536 C 2544 2032.800781 2184 2450.398438 1701.601562 2529.601562 Z M 1701.601562 2529.601562 " fill-opacity="1" fill-rule="nonzero"/><path fill="#000000" d="M 1893.601562 931.199219 C 1910.398438 885.601562 1900.800781 832.800781 1864.800781 796.800781 L 1819.199219 751.199219 C 1795.199219 727.199219 1764 712.800781 1728 712.800781 C 1713.601562 712.800781 1696.800781 715.199219 1684.800781 720 C 1665.601562 676.800781 1620 645.601562 1569.601562 645.601562 L 1504.800781 645.601562 C 1454.398438 645.601562 1408.800781 676.800781 1389.601562 720 C 1375.199219 715.199219 1360.800781 712.800781 1346.398438 712.800781 C 1312.800781 712.800781 1279.199219 727.199219 1255.199219 751.199219 L 1209.601562 796.800781 C 1173.601562 832.800781 1164 885.601562 1180.800781 931.199219 C 1137.601562 950.398438 1106.398438 996 1106.398438 1046.398438 L 1106.398438 1111.199219 C 1106.398438 1161.601562 1137.601562 1207.199219 1180.800781 1226.398438 C 1164 1272 1173.601562 1324.800781 1209.601562 1360.800781 L 1255.199219 1406.398438 C 1279.199219 1430.398438 1310.398438 1444.800781 1346.398438 1444.800781 C 1360.800781 1444.800781 1377.601562 1442.398438 1389.601562 1437.601562 C 1408.800781 1480.800781 1454.398438 1512 1504.800781 1512 L 1569.601562 1512 C 1620 1512 1665.601562 1480.800781 1684.800781 1437.601562 C 1699.199219 1442.398438 1713.601562 1444.800781 1728 1444.800781 C 1761.601562 1444.800781 1795.199219 1430.398438 1819.199219 1406.398438 L 1864.800781 1360.800781 C 1900.800781 1324.800781 1910.398438 1272 1893.601562 1226.398438 C 1936.800781 1207.199219 1968 1161.601562 1968 1111.199219 L 1968 1046.398438 C 1968 996 1936.800781 952.800781 1893.601562 931.199219 Z M 1872 1111.199219 C 1872 1128 1857.601562 1142.398438 1840.800781 1142.398438 C 1826.398438 1142.398438 1816.800781 1152 1812 1164 C 1807.199219 1180.800781 1800 1197.601562 1792.800781 1212 C 1785.601562 1224 1788 1238.398438 1797.601562 1248 C 1809.601562 1260 1809.601562 1281.601562 1797.601562 1293.601562 L 1752 1339.199219 C 1744.800781 1346.398438 1737.601562 1348.800781 1730.398438 1348.800781 C 1723.199219 1348.800781 1713.601562 1346.398438 1708.800781 1339.199219 C 1704 1334.398438 1694.398438 1329.601562 1687.199219 1329.601562 C 1682.398438 1329.601562 1677.601562 1329.601562 1672.800781 1332 C 1658.398438 1339.199219 1641.601562 1346.398438 1624.800781 1351.199219 C 1612.800781 1356 1603.199219 1368 1603.199219 1380 C 1603.199219 1396.800781 1588.800781 1411.199219 1572 1411.199219 L 1507.199219 1411.199219 C 1490.398438 1411.199219 1476 1396.800781 1476 1380 C 1476 1365.601562 1466.398438 1356 1454.398438 1351.199219 C 1437.601562 1346.398438 1420.800781 1339.199219 1406.398438 1332 C 1401.601562 1329.601562 1396.800781 1329.601562 1392 1329.601562 C 1384.800781 1329.601562 1375.199219 1332 1370.398438 1339.199219 C 1363.199219 1346.398438 1356 1348.800781 1348.800781 1348.800781 C 1341.601562 1348.800781 1332 1346.398438 1327.199219 1339.199219 L 1276.800781 1296 C 1264.800781 1284 1264.800781 1262.398438 1276.800781 1250.398438 C 1286.398438 1240.800781 1288.800781 1226.398438 1281.601562 1214.398438 C 1274.398438 1200 1267.199219 1183.199219 1262.398438 1166.398438 C 1257.601562 1154.398438 1245.601562 1144.800781 1233.601562 1144.800781 C 1216.800781 1144.800781 1202.398438 1130.398438 1202.398438 1113.601562 L 1202.398438 1048.800781 C 1202.398438 1032 1216.800781 1017.601562 1233.601562 1017.601562 C 1248 1017.601562 1257.601562 1008 1262.398438 996 C 1267.199219 979.199219 1274.398438 962.398438 1281.601562 948 C 1288.800781 936 1286.398438 921.601562 1276.800781 912 C 1264.800781 900 1264.800781 878.398438 1276.800781 866.398438 L 1322.398438 820.800781 C 1329.601562 813.601562 1336.800781 811.199219 1344 811.199219 C 1351.199219 811.199219 1360.800781 813.601562 1365.601562 820.800781 C 1370.398438 825.601562 1380 830.398438 1387.199219 830.398438 C 1392 830.398438 1396.800781 830.398438 1401.601562 828 C 1416 820.800781 1432.800781 813.601562 1449.601562 808.800781 C 1461.601562 804 1471.199219 792 1471.199219 780 C 1471.199219 763.199219 1485.601562 748.800781 1502.398438 748.800781 L 1567.199219 748.800781 C 1584 748.800781 1598.398438 763.199219 1598.398438 780 C 1598.398438 794.398438 1608 804 1620 808.800781 C 1636.800781 813.601562 1653.601562 820.800781 1668 828 C 1672.800781 830.398438 1677.601562 830.398438 1682.398438 830.398438 C 1689.601562 830.398438 1699.199219 828 1704 820.800781 C 1711.199219 813.601562 1718.398438 811.199219 1725.601562 811.199219 C 1732.800781 811.199219 1742.398438 813.601562 1747.199219 820.800781 L 1792.800781 866.398438 C 1804.800781 878.398438 1804.800781 900 1792.800781 912 C 1783.199219 921.601562 1780.800781 936 1788 948 C 1795.199219 962.398438 1802.398438 979.199219 1807.199219 996 C 1812 1008 1824 1017.601562 1836 1017.601562 C 1852.800781 1017.601562 1867.199219 1032 1867.199219 1048.800781 L 1867.199219 1111.199219 Z M 1872 1111.199219 " fill-opacity="1" fill-rule="nonzero"/><path fill="#000000" d="M 1536 888 C 1430.398438 888 1344 974.398438 1344 1080 C 1344 1185.601562 1430.398438 1272 1536 1272 C 1641.601562 1272 1728 1185.601562 1728 1080 C 1728 974.398438 1641.601562 888 1536 888 Z M 1536 1176 C 1483.199219 1176 1440 1132.800781 1440 1080 C 1440 1027.199219 1483.199219 984 1536 984 C 1588.800781 984 1632 1027.199219 1632 1080 C 1632 1132.800781 1588.800781 1176 1536 1176 Z M 1536 1176 " fill-opacity="1" fill-rule="nonzero"/></svg>