<svg xmlns="http://www.w3.org/2000/svg" xmlns:xlink="http://www.w3.org/1999/xlink" width="2000" zoomAndPan="magnify" viewBox="0 0 1500 1499.999933" height="2000" preserveAspectRatio="xMidYMid meet" version="1.0"><path fill="#000000" d="M 1453.125 667.96875 L 1425 667.96875 C 1421.484375 633.984375 1414.453125 600 1405.078125 568.359375 L 1430.859375 557.8125 C 1454.296875 548.4375 1466.015625 520.3125 1456.640625 496.875 L 1429.6875 432.421875 C 1425 420.703125 1415.625 411.328125 1403.90625 406.640625 C 1392.1875 401.953125 1379.296875 401.953125 1367.578125 406.640625 L 1340.625 417.1875 C 1324.21875 387.890625 1305.46875 359.765625 1284.375 332.8125 L 1304.296875 312.890625 C 1313.671875 303.515625 1318.359375 291.796875 1318.359375 280.078125 C 1318.359375 268.359375 1313.671875 255.46875 1304.296875 247.265625 L 1255.078125 198.046875 C 1245.703125 188.671875 1233.984375 183.984375 1222.265625 183.984375 C 1210.546875 183.984375 1197.65625 188.671875 1189.453125 198.046875 L 1169.53125 217.96875 C 1142.578125 196.875 1114.453125 178.125 1085.15625 161.71875 L 1095.703125 135.9375 C 1100.390625 124.21875 1100.390625 111.328125 1095.703125 99.609375 C 1091.015625 87.890625 1081.640625 78.515625 1069.921875 73.828125 L 1005.46875 46.875 C 982.03125 37.5 953.90625 48.046875 944.53125 72.65625 L 932.8125 98.4375 C 900 89.0625 867.1875 83.203125 833.203125 78.515625 L 833.203125 46.875 C 833.203125 21.09375 812.109375 0 786.328125 0 L 716.015625 0 C 690.234375 0 669.140625 21.09375 669.140625 46.875 L 669.140625 75 C 635.15625 78.515625 601.171875 85.546875 569.53125 94.921875 L 558.984375 69.140625 C 549.609375 45.703125 521.484375 33.984375 498.046875 43.359375 L 430.078125 70.3125 C 418.359375 75 408.984375 84.375 404.296875 96.09375 C 399.609375 107.8125 399.609375 120.703125 404.296875 132.421875 L 414.84375 159.375 C 385.546875 175.78125 357.421875 194.53125 330.46875 215.625 L 310.546875 195.703125 C 301.171875 186.328125 289.453125 181.640625 277.734375 181.640625 C 266.015625 181.640625 253.125 186.328125 244.921875 195.703125 L 195.703125 244.921875 C 186.328125 254.296875 181.640625 266.015625 181.640625 277.734375 C 181.640625 289.453125 186.328125 302.34375 195.703125 310.546875 L 215.625 330.46875 C 194.53125 357.421875 175.78125 385.546875 159.375 414.84375 L 133.59375 404.296875 C 121.875 399.609375 108.984375 399.609375 97.265625 404.296875 C 85.546875 408.984375 76.171875 418.359375 71.484375 430.078125 L 44.53125 494.53125 C 35.15625 517.96875 45.703125 546.09375 70.3125 555.46875 L 96.09375 567.1875 C 86.71875 600 80.859375 632.8125 76.171875 666.796875 L 46.875 666.796875 C 21.09375 666.796875 0 687.890625 0 713.671875 L 0 783.984375 C 0 809.765625 21.09375 830.859375 46.875 830.859375 L 75 830.859375 C 78.515625 864.84375 85.546875 898.828125 94.921875 930.46875 L 69.140625 941.015625 C 45.703125 950.390625 33.984375 978.515625 43.359375 1001.953125 L 70.3125 1069.921875 C 75 1081.640625 84.375 1091.015625 96.09375 1095.703125 C 107.8125 1100.390625 120.703125 1100.390625 132.421875 1095.703125 L 159.375 1085.15625 C 175.78125 1114.453125 194.53125 1142.578125 215.625 1169.53125 L 195.703125 1189.453125 C 176.953125 1208.203125 176.953125 1237.5 195.703125 1256.25 L 244.921875 1305.46875 C 254.296875 1314.84375 266.015625 1319.53125 277.734375 1319.53125 C 289.453125 1319.53125 302.34375 1314.84375 310.546875 1305.46875 L 330.46875 1285.546875 C 357.421875 1306.640625 385.546875 1325.390625 414.84375 1341.796875 L 404.296875 1367.578125 C 399.609375 1379.296875 399.609375 1392.1875 404.296875 1403.90625 C 408.984375 1415.625 418.359375 1425 430.078125 1429.6875 L 494.53125 1456.640625 C 517.96875 1466.015625 546.09375 1455.46875 555.46875 1430.859375 L 567.1875 1405.078125 C 600 1414.453125 632.8125 1420.3125 666.796875 1425 L 666.796875 1453.125 C 666.796875 1478.90625 687.890625 1500 713.671875 1500 L 783.984375 1500 C 809.765625 1500 830.859375 1478.90625 830.859375 1453.125 L 830.859375 1425 C 864.84375 1421.484375 898.828125 1414.453125 930.46875 1405.078125 L 941.015625 1430.859375 C 950.390625 1454.296875 978.515625 1466.015625 1001.953125 1456.640625 L 1066.40625 1429.6875 C 1078.125 1425 1087.5 1415.625 1092.1875 1403.90625 C 1096.875 1392.1875 1096.875 1379.296875 1092.1875 1367.578125 L 1081.640625 1340.625 C 1110.9375 1324.21875 1139.0625 1305.46875 1166.015625 1284.375 L 1185.9375 1304.296875 C 1195.3125 1313.671875 1207.03125 1318.359375 1218.75 1318.359375 C 1230.46875 1318.359375 1243.359375 1313.671875 1251.5625 1304.296875 L 1300.78125 1255.078125 C 1319.53125 1236.328125 1319.53125 1207.03125 1300.78125 1188.28125 L 1280.859375 1168.359375 C 1301.953125 1141.40625 1320.703125 1113.28125 1337.109375 1083.984375 L 1362.890625 1094.53125 C 1374.609375 1099.21875 1387.5 1099.21875 1399.21875 1094.53125 C 1410.9375 1089.84375 1420.3125 1080.46875 1425 1068.75 L 1451.953125 1004.296875 C 1461.328125 980.859375 1450.78125 952.734375 1426.171875 943.359375 L 1400.390625 931.640625 C 1409.765625 898.828125 1415.625 866.015625 1420.3125 832.03125 L 1448.4375 832.03125 C 1474.21875 832.03125 1495.3125 810.9375 1495.3125 785.15625 L 1495.3125 714.84375 C 1500 689.0625 1478.90625 667.96875 1453.125 667.96875 Z M 1453.125 785.15625 L 1425 785.15625 C 1401.5625 785.15625 1381.640625 802.734375 1378.125 827.34375 C 1374.609375 858.984375 1368.75 890.625 1359.375 919.921875 C 1353.515625 943.359375 1365.234375 966.796875 1386.328125 976.171875 L 1412.109375 986.71875 L 1385.15625 1051.171875 L 1359.375 1040.625 C 1337.109375 1031.25 1312.5 1040.625 1300.78125 1061.71875 C 1285.546875 1088.671875 1267.96875 1115.625 1248.046875 1140.234375 C 1232.8125 1158.984375 1235.15625 1185.9375 1251.5625 1202.34375 L 1271.484375 1222.265625 L 1222.265625 1271.484375 L 1202.34375 1251.5625 C 1185.9375 1235.15625 1158.984375 1232.8125 1140.234375 1248.046875 C 1115.625 1267.96875 1088.671875 1285.546875 1061.71875 1300.78125 C 1040.625 1312.5 1032.421875 1338.28125 1040.625 1359.375 L 1051.171875 1385.15625 L 986.71875 1412.109375 L 976.171875 1386.328125 C 966.796875 1364.0625 943.359375 1352.34375 919.921875 1359.375 C 889.453125 1367.578125 858.984375 1373.4375 827.34375 1378.125 C 803.90625 1380.46875 785.15625 1400.390625 785.15625 1425 L 785.15625 1453.125 L 714.84375 1453.125 L 714.84375 1425 C 714.84375 1401.5625 697.265625 1381.640625 672.65625 1378.125 C 641.015625 1374.609375 609.375 1368.75 580.078125 1359.375 C 575.390625 1358.203125 571.875 1358.203125 567.1875 1358.203125 C 548.4375 1358.203125 530.859375 1368.75 523.828125 1387.5 L 513.28125 1413.28125 L 448.828125 1386.328125 L 459.375 1360.546875 C 468.75 1338.28125 459.375 1313.671875 438.28125 1301.953125 C 411.328125 1286.71875 384.375 1269.140625 359.765625 1249.21875 C 341.015625 1233.984375 314.0625 1236.328125 297.65625 1252.734375 L 277.734375 1272.65625 L 228.515625 1223.4375 L 248.4375 1203.515625 C 264.84375 1187.109375 267.1875 1160.15625 251.953125 1141.40625 C 232.03125 1116.796875 214.453125 1089.84375 199.21875 1062.890625 C 187.5 1041.796875 161.71875 1033.59375 140.625 1041.796875 L 114.84375 1052.34375 L 87.890625 987.890625 L 113.671875 977.34375 C 135.9375 967.96875 147.65625 944.53125 140.625 921.09375 C 132.421875 890.625 126.5625 860.15625 121.875 828.515625 C 119.53125 805.078125 99.609375 786.328125 75 786.328125 L 46.875 786.328125 L 46.875 716.015625 L 75 716.015625 C 98.4375 716.015625 118.359375 698.4375 121.875 673.828125 C 125.390625 642.1875 131.25 610.546875 140.625 581.25 C 146.484375 557.8125 134.765625 534.375 113.671875 525 L 87.890625 514.453125 L 114.84375 450 L 140.625 460.546875 C 162.890625 469.921875 187.5 460.546875 199.21875 439.453125 C 214.453125 412.5 232.03125 385.546875 251.953125 360.9375 C 267.1875 342.1875 264.84375 315.234375 248.4375 298.828125 L 228.515625 278.90625 L 277.734375 229.6875 L 297.65625 249.609375 C 314.0625 266.015625 341.015625 268.359375 359.765625 253.125 C 384.375 233.203125 411.328125 215.625 438.28125 200.390625 C 459.375 188.671875 467.578125 162.890625 459.375 141.796875 L 448.828125 116.015625 L 513.28125 89.0625 L 523.828125 114.84375 C 533.203125 137.109375 556.640625 148.828125 580.078125 141.796875 C 610.546875 133.59375 641.015625 127.734375 672.65625 123.046875 C 696.09375 120.703125 714.84375 100.78125 714.84375 76.171875 L 714.84375 46.875 L 785.15625 46.875 L 785.15625 75 C 785.15625 98.4375 802.734375 118.359375 827.34375 121.875 C 858.984375 125.390625 890.625 131.25 919.921875 140.625 C 943.359375 146.484375 966.796875 134.765625 976.171875 113.671875 L 986.71875 87.890625 L 1051.171875 114.84375 L 1040.625 140.625 C 1031.25 162.890625 1040.625 187.5 1061.71875 199.21875 C 1088.671875 214.453125 1115.625 232.03125 1140.234375 251.953125 C 1158.984375 267.1875 1185.9375 264.84375 1202.34375 248.4375 L 1222.265625 228.515625 L 1271.484375 277.734375 L 1251.5625 297.65625 C 1235.15625 314.0625 1232.8125 341.015625 1248.046875 359.765625 C 1267.96875 384.375 1285.546875 411.328125 1300.78125 438.28125 C 1312.5 459.375 1338.28125 467.578125 1359.375 459.375 L 1385.15625 448.828125 L 1412.109375 513.28125 L 1386.328125 523.828125 C 1364.0625 533.203125 1352.34375 556.640625 1359.375 580.078125 C 1367.578125 610.546875 1373.4375 641.015625 1378.125 672.65625 C 1380.46875 696.09375 1400.390625 714.84375 1425 714.84375 L 1453.125 714.84375 Z M 1453.125 785.15625 " fill-opacity="1" fill-rule="nonzero"/><path fill="#000000" d="M 750 210.9375 C 452.34375 210.9375 210.9375 452.34375 210.9375 750 C 210.9375 1025.390625 417.1875 1256.25 690.234375 1285.546875 C 697.265625 1286.71875 703.125 1284.375 708.984375 1279.6875 C 714.84375 1275 717.1875 1269.140625 717.1875 1262.109375 L 717.1875 1130.859375 C 717.1875 1121.484375 711.328125 1112.109375 701.953125 1108.59375 C 649.21875 1087.5 612.890625 1033.59375 609.375 973.828125 C 607.03125 921.09375 629.296875 870.703125 669.140625 840.234375 L 669.140625 972.65625 C 669.140625 992.578125 685.546875 1008.984375 705.46875 1008.984375 L 793.359375 1008.984375 C 813.28125 1008.984375 829.6875 992.578125 829.6875 972.65625 L 829.6875 841.40625 C 867.1875 869.53125 889.453125 916.40625 889.453125 966.796875 C 889.453125 1030.078125 851.953125 1087.5 796.875 1109.765625 C 787.5 1113.28125 781.640625 1121.484375 781.640625 1132.03125 L 781.640625 1263.28125 C 781.640625 1270.3125 783.984375 1276.171875 789.84375 1280.859375 C 794.53125 1284.375 799.21875 1286.71875 805.078125 1286.71875 C 806.25 1286.71875 806.25 1286.71875 807.421875 1286.71875 C 1082.8125 1256.25 1289.0625 1025.390625 1289.0625 750 C 1289.0625 452.34375 1047.65625 210.9375 750 210.9375 Z M 830.859375 1235.15625 L 830.859375 1146.09375 C 895.3125 1113.28125 937.5 1042.96875 937.5 965.625 C 937.5 891.796875 898.828125 823.828125 836.71875 788.671875 C 826.171875 782.8125 812.109375 782.8125 801.5625 789.84375 C 791.015625 796.875 783.984375 808.59375 783.984375 821.484375 L 783.984375 962.109375 L 717.1875 962.109375 L 717.1875 821.484375 C 717.1875 808.59375 710.15625 795.703125 698.4375 789.84375 C 687.890625 783.984375 675 782.8125 663.28125 789.84375 C 597.65625 826.171875 558.984375 898.828125 562.5 977.34375 C 566.015625 1050 607.03125 1114.453125 669.140625 1146.09375 L 669.140625 1236.328125 C 433.59375 1196.484375 257.8125 992.578125 257.8125 750 C 257.8125 478.125 478.125 257.8125 750 257.8125 C 1021.875 257.8125 1242.1875 478.125 1242.1875 750 C 1242.1875 992.578125 1066.40625 1196.484375 830.859375 1235.15625 Z M 830.859375 1235.15625 " fill-opacity="1" fill-rule="nonzero"/><path fill="#000000" d="M 924.609375 454.6875 C 932.8125 432.421875 928.125 406.640625 910.546875 389.0625 L 888.28125 366.796875 C 876.5625 355.078125 861.328125 348.046875 843.75 348.046875 C 836.71875 348.046875 828.515625 349.21875 822.65625 351.5625 C 813.28125 330.46875 791.015625 315.234375 766.40625 315.234375 L 734.765625 315.234375 C 710.15625 315.234375 687.890625 330.46875 678.515625 351.5625 C 671.484375 349.21875 664.453125 348.046875 657.421875 348.046875 C 641.015625 348.046875 624.609375 355.078125 612.890625 366.796875 L 590.625 389.0625 C 573.046875 406.640625 568.359375 432.421875 576.5625 454.6875 C 555.46875 464.0625 540.234375 486.328125 540.234375 510.9375 L 540.234375 542.578125 C 540.234375 567.1875 555.46875 589.453125 576.5625 598.828125 C 568.359375 621.09375 573.046875 646.875 590.625 664.453125 L 612.890625 686.71875 C 624.609375 698.4375 639.84375 705.46875 657.421875 705.46875 C 664.453125 705.46875 672.65625 704.296875 678.515625 701.953125 C 687.890625 723.046875 710.15625 738.28125 734.765625 738.28125 L 766.40625 738.28125 C 791.015625 738.28125 813.28125 723.046875 822.65625 701.953125 C 829.6875 704.296875 836.71875 705.46875 843.75 705.46875 C 860.15625 705.46875 876.5625 698.4375 888.28125 686.71875 L 910.546875 664.453125 C 928.125 646.875 932.8125 621.09375 924.609375 598.828125 C 945.703125 589.453125 960.9375 567.1875 960.9375 542.578125 L 960.9375 510.9375 C 960.9375 486.328125 945.703125 465.234375 924.609375 454.6875 Z M 914.0625 542.578125 C 914.0625 550.78125 907.03125 557.8125 898.828125 557.8125 C 891.796875 557.8125 887.109375 562.5 884.765625 568.359375 C 882.421875 576.5625 878.90625 584.765625 875.390625 591.796875 C 871.875 597.65625 873.046875 604.6875 877.734375 609.375 C 883.59375 615.234375 883.59375 625.78125 877.734375 631.640625 L 855.46875 653.90625 C 851.953125 657.421875 848.4375 658.59375 844.921875 658.59375 C 841.40625 658.59375 836.71875 657.421875 834.375 653.90625 C 832.03125 651.5625 827.34375 649.21875 823.828125 649.21875 C 821.484375 649.21875 819.140625 649.21875 816.796875 650.390625 C 809.765625 653.90625 801.5625 657.421875 793.359375 659.765625 C 787.5 662.109375 782.8125 667.96875 782.8125 673.828125 C 782.8125 682.03125 775.78125 689.0625 767.578125 689.0625 L 735.9375 689.0625 C 727.734375 689.0625 720.703125 682.03125 720.703125 673.828125 C 720.703125 666.796875 716.015625 662.109375 710.15625 659.765625 C 701.953125 657.421875 693.75 653.90625 686.71875 650.390625 C 684.375 649.21875 682.03125 649.21875 679.6875 649.21875 C 676.171875 649.21875 671.484375 650.390625 669.140625 653.90625 C 665.625 657.421875 662.109375 658.59375 658.59375 658.59375 C 655.078125 658.59375 650.390625 657.421875 648.046875 653.90625 L 623.4375 632.8125 C 617.578125 626.953125 617.578125 616.40625 623.4375 610.546875 C 628.125 605.859375 629.296875 598.828125 625.78125 592.96875 C 622.265625 585.9375 618.75 577.734375 616.40625 569.53125 C 614.0625 563.671875 608.203125 558.984375 602.34375 558.984375 C 594.140625 558.984375 587.109375 551.953125 587.109375 543.75 L 587.109375 512.109375 C 587.109375 503.90625 594.140625 496.875 602.34375 496.875 C 609.375 496.875 614.0625 492.1875 616.40625 486.328125 C 618.75 478.125 622.265625 469.921875 625.78125 462.890625 C 629.296875 457.03125 628.125 450 623.4375 445.3125 C 617.578125 439.453125 617.578125 428.90625 623.4375 423.046875 L 645.703125 400.78125 C 649.21875 397.265625 652.734375 396.09375 656.25 396.09375 C 659.765625 396.09375 664.453125 397.265625 666.796875 400.78125 C 669.140625 403.125 673.828125 405.46875 677.34375 405.46875 C 679.6875 405.46875 682.03125 405.46875 684.375 404.296875 C 691.40625 400.78125 699.609375 397.265625 707.8125 394.921875 C 713.671875 392.578125 718.359375 386.71875 718.359375 380.859375 C 718.359375 372.65625 725.390625 365.625 733.59375 365.625 L 765.234375 365.625 C 773.4375 365.625 780.46875 372.65625 780.46875 380.859375 C 780.46875 387.890625 785.15625 392.578125 791.015625 394.921875 C 799.21875 397.265625 807.421875 400.78125 814.453125 404.296875 C 816.796875 405.46875 819.140625 405.46875 821.484375 405.46875 C 825 405.46875 829.6875 404.296875 832.03125 400.78125 C 835.546875 397.265625 839.0625 396.09375 842.578125 396.09375 C 846.09375 396.09375 850.78125 397.265625 853.125 400.78125 L 875.390625 423.046875 C 881.25 428.90625 881.25 439.453125 875.390625 445.3125 C 870.703125 450 869.53125 457.03125 873.046875 462.890625 C 876.5625 469.921875 880.078125 478.125 882.421875 486.328125 C 884.765625 492.1875 890.625 496.875 896.484375 496.875 C 904.6875 496.875 911.71875 503.90625 911.71875 512.109375 L 911.71875 542.578125 Z M 914.0625 542.578125 " fill-opacity="1" fill-rule="nonzero"/><path fill="#000000" d="M 750 433.59375 C 698.4375 433.59375 656.25 475.78125 656.25 527.34375 C 656.25 578.90625 698.4375 621.09375 750 621.09375 C 801.5625 621.09375 843.75 578.90625 843.75 527.34375 C 843.75 475.78125 801.5625 433.59375 750 433.59375 Z M 750 574.21875 C 724.21875 574.21875 703.125 553.125 703.125 527.34375 C 703.125 501.5625 724.21875 480.46875 750 480.46875 C 775.78125 480.46875 796.875 501.5625 796.875 527.34375 C 796.875 553.125 775.78125 574.21875 750 574.21875 Z M 750 574.21875 " fill-opacity="1" fill-rule="nonzero"/></svg>