<svg><rect width="3072" height="3071.999987" fill="white"/> xmlns="http://www.w3.org/2000/svg" xmlns:xlink="http://www.w3.org/1999/xlink" width="4096" zoomAndPan="magnify" viewBox="0 0 3072 3071.999987" height="4096" preserveAspectRatio="xMidYMid meet" version="1.0"><defs><clipPath id="5b1d39ff9e"><path d="M 850.1875 728.539062 L 2152.71875 728.539062 L 2152.71875 2031.074219 L 850.1875 2031.074219 Z M 850.1875 728.539062 " clip-rule="nonzero"/></clipPath><clipPath id="c75701a447"><path d="M 1772.867188 728.539062 L 2155.195312 1110.867188 L 2155.195312 1651.222656 L 1772.867188 2033.550781 L 1232.511719 2033.550781 L 850.1875 1651.222656 L 850.1875 1110.867188 L 1232.511719 728.539062 Z M 1772.867188 728.539062 " clip-rule="nonzero"/></clipPath><clipPath id="639ee83105"><path d="M 953.074219 1040.707031 L 2052.226562 1040.707031 L 2052.226562 1601.515625 L 953.074219 1601.515625 Z M 953.074219 1040.707031 " clip-rule="nonzero"/></clipPath><clipPath id="12e72ed690"><path d="M 1507 870.675781 L 1531 870.675781 L 1531 1064 L 1507 1064 Z M 1507 870.675781 " clip-rule="nonzero"/></clipPath><clipPath id="1d05722ece"><path d="M 1507 870.675781 L 1673 870.675781 L 1673 1001 L 1507 1001 Z M 1507 870.675781 " clip-rule="nonzero"/></clipPath></defs><g clip-path="url(#5b1d39ff9e)"><g clip-path="url(#c75701a447)"><path stroke-linecap="butt" transform="matrix(5.867268, 0, 0, 5.867268, 850.186384, 728.540058)" fill="none" stroke-linejoin="miter" d="M 157.259006 -0.00016975 L 222.421888 65.162713 L 222.421888 157.259312 L 157.259006 222.422194 L 65.162407 222.422194 L 0.000190282 157.259312 L 0.000190282 65.162713 L 65.162407 -0.00016975 Z M 157.259006 -0.00016975 " stroke="#ffffff" stroke-width="10.993191" stroke-opacity="1" stroke-miterlimit="4"/></g></g><path fill="#ffffff" d="M 1681.214844 1373.441406 C 1677.121094 1373.441406 1673.148438 1371.238281 1671.097656 1367.359375 L 1583.820312 1203.09375 L 1564.722656 1203.09375 C 1560.890625 1203.09375 1557.324219 1201.183594 1555.191406 1197.992188 L 1509.46875 1129.40625 C 1505.960938 1124.148438 1507.382812 1117.042969 1512.648438 1113.523438 C 1517.914062 1110.015625 1525.023438 1111.4375 1528.53125 1116.703125 L 1570.851562 1180.1875 L 1590.707031 1180.1875 C 1594.9375 1180.1875 1598.832031 1182.527344 1600.824219 1186.269531 L 1691.328125 1356.617188 C 1694.285156 1362.199219 1692.167969 1369.128906 1686.585938 1372.101562 C 1684.871094 1373.023438 1683.03125 1373.441406 1681.214844 1373.441406 " fill-opacity="1" fill-rule="evenodd"/><path fill="#ffffff" d="M 1145.082031 1491.351562 C 1142.695312 1491.351562 1140.269531 1490.609375 1138.21875 1489.058594 C 1133.152344 1485.257812 1132.136719 1478.082031 1135.9375 1473.011719 L 1185.273438 1407.316406 C 1188.359375 1403.203125 1193.8125 1401.652344 1198.601562 1403.515625 L 1247.613281 1422.695312 L 1350.9375 1248.339844 C 1354.164062 1242.898438 1361.191406 1241.117188 1366.632812 1244.332031 C 1372.074219 1247.550781 1373.867188 1254.585938 1370.640625 1260.027344 L 1262.355469 1442.761719 C 1259.5 1447.585938 1253.554688 1449.625 1248.324219 1447.585938 L 1198.359375 1428.035156 L 1154.253906 1486.773438 C 1152.003906 1489.769531 1148.566406 1491.351562 1145.082031 1491.351562 " fill-opacity="1" fill-rule="evenodd"/><g clip-path="url(#639ee83105)"><path fill="#ffffff" d="M 1296.890625 1489.898438 C 1379.4375 1489.898438 1461.9375 1505.953125 1564.128906 1527.871094 C 1790 1576.347656 1907.421875 1570.835938 1967.898438 1554.941406 L 1745.546875 1284.335938 L 1701.804688 1314.15625 C 1699.109375 1315.984375 1695.765625 1316.578125 1692.609375 1315.808594 C 1689.441406 1315.027344 1686.757812 1312.941406 1685.234375 1310.066406 L 1607.488281 1163.722656 L 1585.789062 1163.722656 C 1581.96875 1163.722656 1578.390625 1161.808594 1576.257812 1158.617188 L 1519.082031 1072.84375 L 1407.160156 1239.625 C 1405.363281 1242.292969 1402.554688 1244.078125 1399.386719 1244.566406 C 1396.21875 1245.054688 1392.988281 1244.191406 1390.496094 1242.1875 L 1353.148438 1212.3125 L 1245.550781 1393.890625 C 1242.683594 1398.714844 1236.742188 1400.765625 1231.523438 1398.714844 L 1184.84375 1380.457031 L 1070.960938 1532.125 C 1154.683594 1501.816406 1225.8125 1489.898438 1296.890625 1489.898438 Z M 964.539062 1601.515625 C 960.289062 1601.515625 956.199219 1599.136719 954.226562 1595.046875 C 951.464844 1589.363281 953.84375 1582.511719 959.542969 1579.761719 C 984.316406 1567.746094 1007.921875 1557.121094 1030.550781 1547.796875 L 1171.757812 1359.738281 C 1174.84375 1355.625 1180.308594 1354.085938 1185.085938 1355.953125 L 1230.800781 1373.839844 L 1340.15625 1189.296875 C 1341.847656 1186.445312 1344.691406 1184.460938 1347.953125 1183.867188 C 1351.214844 1183.273438 1354.582031 1184.125 1357.171875 1186.199219 L 1395.074219 1216.519531 L 1509.59375 1045.855469 C 1511.726562 1042.6875 1515.292969 1040.789062 1519.105469 1040.789062 C 1519.117188 1040.789062 1519.117188 1040.789062 1519.128906 1040.789062 C 1522.949219 1040.789062 1526.515625 1042.710938 1528.636719 1045.878906 L 1591.921875 1140.8125 L 1614.375 1140.8125 C 1618.605469 1140.8125 1622.496094 1143.15625 1624.488281 1146.894531 L 1699.472656 1288.03125 L 1741.292969 1259.503906 C 1746.1875 1256.171875 1752.828125 1257.117188 1756.59375 1261.695312 L 1991.273438 1547.308594 C 2023.851562 1534.175781 2030.214844 1518.96875 2030.367188 1518.574219 L 2030.25 1518.933594 L 2052.238281 1525.34375 C 2051.316406 1528.5 2042.4375 1553.925781 1991.796875 1571.671875 C 1991.574219 1571.753906 1991.34375 1571.847656 1991.109375 1571.917969 C 1985.238281 1573.945312 1978.816406 1575.878906 1971.777344 1577.652344 C 1885.0625 1599.617188 1746.28125 1590.398438 1559.328125 1550.28125 C 1331.605469 1501.410156 1211.398438 1483.136719 969.527344 1600.363281 C 967.917969 1601.144531 966.21875 1601.515625 964.539062 1601.515625 " fill-opacity="1" fill-rule="evenodd"/></g><path fill="#ffffff" d="M 1481.605469 1441.65625 C 1477.15625 1441.65625 1472.914062 1439.046875 1471.0625 1434.699219 L 1387.105469 1237.738281 C 1384.625 1231.921875 1387.339844 1225.1875 1393.152344 1222.707031 C 1398.96875 1220.222656 1405.703125 1222.9375 1408.171875 1228.753906 L 1492.128906 1425.703125 C 1494.609375 1431.53125 1491.90625 1438.253906 1486.09375 1440.734375 C 1484.625 1441.363281 1483.097656 1441.65625 1481.605469 1441.65625 " fill-opacity="1" fill-rule="evenodd"/><path fill="#ffffff" d="M 1781.550781 1481.648438 C 1777.414062 1481.648438 1773.417969 1479.398438 1771.378906 1475.484375 L 1685.199219 1309.996094 C 1682.273438 1304.378906 1684.453125 1297.46875 1690.058594 1294.542969 C 1695.660156 1291.605469 1702.59375 1293.796875 1705.507812 1299.402344 L 1791.703125 1464.902344 C 1794.625 1470.507812 1792.445312 1477.429688 1786.832031 1480.339844 C 1785.140625 1481.226562 1783.335938 1481.648438 1781.550781 1481.648438 " fill-opacity="1" fill-rule="evenodd"/><g clip-path="url(#12e72ed690)"><path fill="#ffffff" d="M 1519.105469 1063.683594 C 1512.777344 1063.683594 1507.648438 1058.558594 1507.648438 1052.230469 L 1507.648438 882.128906 C 1507.648438 875.800781 1512.777344 870.675781 1519.105469 870.675781 C 1525.429688 870.675781 1530.558594 875.800781 1530.558594 882.128906 L 1530.558594 1052.230469 C 1530.558594 1058.558594 1525.429688 1063.683594 1519.105469 1063.683594 " fill-opacity="1" fill-rule="evenodd"/></g><g clip-path="url(#1d05722ece)"><path fill="#ffffff" d="M 1660.667969 1000.972656 L 1519.105469 1000.972656 C 1512.777344 1000.972656 1507.648438 995.84375 1507.648438 989.515625 C 1507.648438 983.191406 1512.777344 978.0625 1519.105469 978.0625 L 1649.214844 978.0625 L 1649.214844 893.582031 L 1519.105469 893.582031 C 1512.777344 893.582031 1507.648438 888.457031 1507.648438 882.128906 C 1507.648438 875.800781 1512.777344 870.675781 1519.105469 870.675781 L 1660.667969 870.675781 C 1666.996094 870.675781 1672.125 875.800781 1672.125 882.128906 L 1672.125 989.515625 C 1672.125 995.84375 1666.996094 1000.972656 1660.667969 1000.972656 " fill-opacity="1" fill-rule="evenodd"/></g></svg>