<svg xmlns="http://www.w3.org/2000/svg" xmlns:xlink="http://www.w3.org/1999/xlink" width="2000" zoomAndPan="magnify" viewBox="0 0 1500 1499.999933" height="2000" preserveAspectRatio="xMidYMid meet" version="1.0"><path fill="#000000" d="M 1063.085938 221.722656 C 1114.914062 221.722656 1166.742188 221.722656 1218.570312 221.722656 C 1235.851562 221.722656 1249.992188 235.863281 1249.992188 253.152344 L 1249.992188 290.214844 C 1249.992188 307.5 1235.855469 321.644531 1218.570312 321.644531 L 1085.285156 321.644531 C 1083.707031 321.644531 1082.421875 322.929688 1082.421875 324.507812 L 1082.421875 782.019531 C 1082.421875 783.59375 1081.136719 784.878906 1079.5625 784.878906 L 985.382812 784.878906 C 983.808594 784.878906 982.523438 783.59375 982.523438 782.019531 L 982.523438 302.300781 C 982.527344 257.917969 1018.71875 221.722656 1063.085938 221.722656 Z M 511.679688 49.261719 C 685.199219 49.261719 825.867188 189.964844 825.867188 363.523438 C 825.867188 537.085938 685.199219 677.789062 511.679688 677.789062 C 338.164062 677.789062 197.492188 537.085938 197.492188 363.523438 C 197.492188 189.964844 338.164062 49.261719 511.679688 49.261719 Z M 324.835938 342.0625 L 303.773438 342.0625 C 302.925781 342.0625 302.199219 341.734375 301.636719 341.101562 C 301.070312 340.472656 300.832031 339.714844 300.925781 338.871094 C 312.199219 241.359375 389.546875 163.996094 487.035156 152.71875 C 487.875 152.617188 488.636719 152.863281 489.265625 153.425781 C 489.898438 153.988281 490.222656 154.714844 490.222656 155.5625 L 490.222656 176.628906 C 490.222656 188.480469 499.828125 198.089844 511.679688 198.089844 C 523.527344 198.089844 533.136719 188.484375 533.136719 176.628906 L 533.136719 155.5625 C 533.136719 154.714844 533.464844 153.988281 534.09375 153.425781 C 534.726562 152.863281 535.484375 152.621094 536.324219 152.71875 C 633.8125 163.992188 711.15625 241.359375 722.433594 338.871094 C 722.53125 339.710938 722.285156 340.46875 721.726562 341.101562 C 721.164062 341.734375 720.433594 342.0625 719.589844 342.0625 L 698.527344 342.0625 C 686.679688 342.0625 677.070312 351.671875 677.070312 363.523438 C 677.070312 375.375 686.675781 384.988281 698.527344 384.988281 L 745.304688 384.988281 C 757.152344 384.988281 766.761719 375.378906 766.761719 363.523438 C 766.761719 222.621094 652.554688 108.382812 511.683594 108.382812 C 370.8125 108.382812 256.601562 222.621094 256.601562 363.523438 C 256.601562 375.375 266.207031 384.988281 278.058594 384.988281 L 324.835938 384.988281 C 336.683594 384.988281 346.289062 375.378906 346.289062 363.523438 C 346.289062 351.671875 336.683594 342.0625 324.835938 342.0625 Z M 525.359375 384.878906 C 524.625 385.613281 523.640625 385.882812 522.632812 385.625 C 494.78125 378.5625 467.058594 399.53125 467.058594 428.902344 C 467.058594 453.554688 487.035156 473.535156 511.679688 473.535156 C 541.046875 473.535156 562.011719 445.800781 554.945312 417.949219 C 554.691406 416.941406 554.964844 415.953125 555.695312 415.21875 L 642.988281 327.90625 C 651.363281 319.527344 651.363281 305.941406 642.988281 297.5625 C 634.609375 289.183594 621.027344 289.183594 612.648438 297.5625 Z M 329.417969 827.8125 C 207.378906 841.90625 78.082031 878.226562 83.207031 1139.488281 C 83.207031 1139.527344 83.207031 1139.5625 83.207031 1139.601562 C 78.082031 1400.859375 207.375 1437.183594 329.417969 1451.273438 C 329.53125 1451.289062 329.628906 1451.296875 329.742188 1451.296875 L 350.886719 1451.296875 C 352.460938 1451.296875 353.746094 1450.011719 353.746094 1448.433594 L 353.746094 830.65625 C 353.746094 829.078125 352.460938 827.792969 350.886719 827.792969 L 329.742188 827.792969 C 329.628906 827.792969 329.53125 827.800781 329.417969 827.8125 Z M 1149.324219 1451.292969 L 1170.464844 1451.292969 C 1170.582031 1451.292969 1170.679688 1451.285156 1170.792969 1451.273438 C 1292.832031 1437.179688 1422.125 1400.855469 1417 1139.597656 C 1417 1139.558594 1417 1139.523438 1417 1139.484375 C 1422.125 878.222656 1292.832031 841.902344 1170.792969 827.808594 C 1170.679688 827.796875 1170.582031 827.789062 1170.464844 827.789062 L 1149.324219 827.789062 C 1147.75 827.789062 1146.464844 829.074219 1146.464844 830.652344 L 1146.464844 1448.429688 C 1146.46875 1450.011719 1147.75 1451.292969 1149.324219 1451.292969 Z M 399.515625 1451.292969 L 1100.699219 1451.292969 C 1102.277344 1451.292969 1103.5625 1450.007812 1103.5625 1448.429688 L 1103.5625 830.65625 C 1103.5625 829.078125 1102.277344 827.792969 1100.699219 827.792969 L 399.515625 827.792969 C 397.941406 827.792969 396.65625 829.078125 396.65625 830.65625 L 396.65625 1448.433594 C 396.65625 1450.011719 397.941406 1451.292969 399.515625 1451.292969 Z M 888.414062 1053.183594 C 891.910156 1064.449219 885.648438 1076.4375 874.386719 1079.992188 C 863.09375 1083.554688 851.050781 1077.289062 847.484375 1065.992188 C 846.457031 1062.757812 845.660156 1059.371094 845.117188 1055.851562 L 845.105469 1055.855469 C 838.273438 1011.496094 875.519531 971.839844 922.9375 978.078125 C 993.714844 987.382812 1020.589844 1089.589844 951.507812 1137.820312 C 928.582031 1153.828125 898.929688 1161.007812 871.082031 1161.007812 L 539.222656 1161.007812 C 527.375 1161.007812 517.765625 1151.398438 517.765625 1139.546875 C 517.765625 1127.691406 527.371094 1118.085938 539.222656 1118.085938 L 871.085938 1118.085938 C 904.175781 1118.085938 943.683594 1104.933594 948.554688 1067.882812 C 951.539062 1045.15625 936.015625 1018.136719 910.023438 1020.425781 C 895.480469 1021.707031 885.285156 1034.851562 887.511719 1049.316406 L 887.5 1049.320312 L 888.363281 1052.988281 C 888.378906 1053.058594 888.394531 1053.117188 888.414062 1053.183594 Z M 774.140625 1309.261719 C 777.703125 1297.96875 789.75 1291.699219 801.042969 1295.261719 C 812.335938 1298.824219 818.601562 1310.875 815.039062 1322.171875 C 809.558594 1339.496094 823.195312 1357.507812 844.066406 1354.761719 C 875.730469 1350.597656 890.90625 1298.457031 853.695312 1272.476562 C 838.5625 1261.910156 817.816406 1257.171875 797.746094 1257.171875 L 529.90625 1257.171875 C 518.058594 1257.171875 508.449219 1247.5625 508.449219 1235.710938 C 508.449219 1223.859375 518.054688 1214.25 529.90625 1214.25 L 797.746094 1214.25 C 852.160156 1214.25 909.675781 1241.402344 917.617188 1301.835938 C 924.308594 1352.742188 885.679688 1402.226562 832.992188 1397.582031 C 789.933594 1393.789062 761.003906 1350.679688 774.140625 1309.261719 Z M 713.125 956.914062 C 716.6875 968.210938 710.421875 980.257812 699.128906 983.824219 C 687.835938 987.386719 675.792969 981.121094 672.226562 969.824219 C 657.507812 923.304688 695.371094 875.03125 747.683594 881.910156 C 818.457031 891.214844 845.328125 993.417969 776.25 1041.652344 C 753.324219 1057.660156 723.671875 1064.839844 695.824219 1064.839844 L 529.894531 1064.839844 C 518.046875 1064.839844 508.4375 1055.230469 508.4375 1043.378906 C 508.4375 1031.527344 518.042969 1021.914062 529.894531 1021.914062 L 695.824219 1021.914062 C 728.917969 1021.914062 768.421875 1008.765625 773.292969 971.714844 C 776.277344 948.992188 760.761719 921.96875 734.761719 924.257812 C 718.316406 925.703125 708.363281 941.898438 713.125 956.914062 Z M 597.074219 714.023438 L 597.074219 782.015625 C 597.074219 783.589844 595.789062 784.875 594.214844 784.875 L 429.144531 784.875 C 427.570312 784.875 426.285156 783.589844 426.285156 782.015625 L 426.285156 714.023438 C 426.285156 713.121094 426.660156 712.34375 427.371094 711.78125 C 428.078125 711.222656 428.921875 711.03125 429.800781 711.242188 C 483.5625 723.867188 539.800781 723.867188 593.566406 711.242188 C 594.445312 711.035156 595.285156 711.222656 595.996094 711.785156 C 596.699219 712.34375 597.074219 713.121094 597.074219 714.023438 Z M 597.074219 714.023438 " fill-opacity="1" fill-rule="evenodd"/></svg>